<svg id="svg" version="1.1" xmlns="http://www.w3.org/2000/svg" xmlns:xlink="http://www.w3.org/1999/xlink" width="400" height="573" viewBox="0, 0, 400,573"><g id="svgg"><path id="path0" d="M141.334 280.537 C 137.589 288.309,135.536 292.599,126.508 311.522 C 122.497 319.928,118.291 328.726,117.160 331.072 C 116.029 333.419,115.104 335.380,115.104 335.431 C 115.104 335.481,117.314 335.522,120.015 335.522 L 124.925 335.522 125.661 333.910 C 126.943 331.099,129.218 325.889,129.624 324.834 L 130.015 323.817 143.734 323.879 L 157.453 323.940 158.864 327.164 C 159.641 328.937,160.772 331.543,161.378 332.955 L 162.479 335.522 167.568 335.522 C 170.367 335.522,172.657 335.473,172.657 335.412 C 172.657 335.277,168.822 327.213,165.398 320.148 C 164.005 317.275,162.866 314.896,162.866 314.864 C 162.866 314.831,161.469 311.934,159.761 308.427 C 158.054 304.920,156.657 302.016,156.657 301.974 C 156.657 301.932,155.260 299.029,153.552 295.522 C 151.845 292.016,150.448 289.115,150.448 289.076 C 150.448 289.018,147.329 282.532,144.792 277.313 C 143.878 275.434,143.723 275.578,141.334 280.537 M251.827 281.623 C 250.385 284.671,248.197 289.260,246.964 291.821 C 245.732 294.382,244.264 297.445,243.702 298.627 C 243.141 299.809,239.006 308.460,234.514 317.851 C 230.023 327.242,226.291 335.060,226.223 335.224 C 226.125 335.457,227.192 335.522,231.105 335.522 L 236.113 335.522 236.605 334.269 C 237.196 332.766,240.608 324.948,240.963 324.285 C 241.207 323.828,241.523 323.818,254.861 323.879 L 268.510 323.940 270.021 327.403 C 270.853 329.307,271.979 331.913,272.524 333.194 L 273.516 335.522 278.609 335.522 C 281.410 335.522,283.701 335.460,283.701 335.384 C 283.701 335.308,282.788 333.361,281.672 331.056 C 280.555 328.752,279.642 326.835,279.642 326.797 C 279.642 326.759,278.299 323.967,276.657 320.592 C 275.015 317.218,273.672 314.425,273.672 314.386 C 273.672 314.348,272.275 311.447,270.567 307.940 C 268.860 304.434,267.463 301.536,267.463 301.502 C 267.463 301.467,266.428 299.302,265.163 296.690 C 263.898 294.078,261.550 289.200,259.945 285.851 C 255.592 276.767,255.220 276.058,254.813 276.071 C 254.575 276.078,253.537 278.008,251.827 281.623 M174.716 276.597 C 174.907 276.918,175.973 278.563,182.573 288.716 C 184.921 292.328,186.954 295.609,187.092 296.007 C 187.230 296.405,187.558 297.012,187.821 297.356 C 188.084 297.701,188.513 298.339,188.776 298.774 C 189.039 299.209,189.415 299.796,189.612 300.079 C 189.809 300.361,190.290 301.117,190.681 301.759 C 191.071 302.400,192.071 303.938,192.901 305.175 C 195.113 308.469,195.104 308.396,195.104 323.247 L 195.104 335.448 198.366 335.605 C 200.160 335.691,202.202 335.761,202.903 335.761 L 204.179 335.761 204.179 321.823 C 204.179 308.247,204.191 307.870,204.657 307.278 C 204.919 306.944,205.134 306.539,205.134 306.379 C 205.134 306.034,205.537 305.361,208.133 301.373 C 209.202 299.731,211.559 296.078,213.372 293.254 C 215.186 290.430,217.120 287.421,217.672 286.567 C 218.224 285.713,219.404 283.887,220.293 282.507 C 221.183 281.128,222.434 279.194,223.072 278.209 L 224.233 276.418 219.167 276.353 C 213.218 276.277,213.743 276.152,212.713 277.895 C 212.261 278.659,210.873 280.949,209.628 282.985 C 208.383 285.021,206.776 287.654,206.055 288.836 C 205.335 290.018,204.461 291.292,204.112 291.668 C 203.570 292.253,202.116 294.540,201.814 295.284 C 201.760 295.415,201.465 295.855,201.157 296.261 C 200.849 296.668,200.597 297.081,200.597 297.180 C 200.597 297.442,199.638 298.747,199.446 298.745 C 199.357 298.744,199.024 298.341,198.706 297.849 C 198.388 297.357,197.851 296.525,197.512 296.000 C 197.173 295.475,196.716 294.910,196.496 294.746 C 196.276 294.581,195.969 294.044,195.814 293.551 C 195.552 292.723,195.251 292.190,193.750 289.898 C 193.444 289.431,193.194 288.967,193.194 288.867 C 193.194 288.767,192.925 288.332,192.597 287.902 C 192.269 287.471,192.000 287.041,192.000 286.947 C 192.000 286.852,191.752 286.432,191.449 286.014 C 191.146 285.596,190.692 284.851,190.440 284.358 C 190.187 283.866,189.898 283.463,189.796 283.463 C 189.695 283.463,189.612 283.334,189.612 283.177 C 189.612 282.839,188.419 281.032,188.030 280.780 C 187.881 280.684,187.182 279.640,186.477 278.459 L 185.194 276.312 179.867 276.305 C 175.668 276.300,174.577 276.362,174.716 276.597 M146.157 298.269 C 147.245 300.830,149.408 305.753,150.963 309.210 C 152.519 312.666,153.791 315.541,153.791 315.598 C 153.791 315.655,149.282 315.701,143.772 315.701 L 133.753 315.701 134.439 314.089 C 134.816 313.202,136.273 309.952,137.677 306.865 C 139.081 303.779,140.692 300.179,141.258 298.866 C 143.267 294.203,143.778 293.175,143.977 293.393 C 144.088 293.513,145.068 295.707,146.157 298.269 M256.071 295.642 C 257.072 298.077,260.513 305.923,263.026 311.498 C 264.026 313.718,264.806 315.573,264.758 315.620 C 264.710 315.668,260.210 315.679,254.758 315.644 L 244.844 315.582 247.451 309.731 C 248.885 306.513,251.084 301.570,252.337 298.746 C 253.591 295.922,254.672 293.522,254.738 293.412 C 254.939 293.082,255.195 293.511,256.071 295.642 " stroke="none" fill="#4b73fb" fill-rule="evenodd"></path><path id="path1" d="M81.556 5.964 C 81.477 6.093,81.359 6.764,81.294 7.457 C 81.179 8.680,80.547 13.215,79.504 20.299 C 79.224 22.203,78.909 24.621,78.806 25.672 C 78.628 27.487,78.443 28.791,77.015 38.328 C 76.681 40.561,76.410 42.696,76.413 43.072 C 76.416 43.448,76.156 45.329,75.836 47.251 C 75.515 49.173,75.191 51.337,75.114 52.060 C 74.934 53.763,73.931 60.919,73.184 65.831 C 72.861 67.954,72.597 69.978,72.597 70.328 C 72.597 70.679,72.334 72.703,72.012 74.826 C 71.690 76.949,71.152 80.728,70.817 83.224 C 70.099 88.557,69.274 94.440,68.406 100.418 C 68.063 102.782,67.744 105.146,67.699 105.672 C 67.653 106.197,67.333 108.561,66.989 110.925 C 66.645 113.290,66.096 117.158,65.771 119.522 C 64.567 128.257,64.004 132.263,63.504 135.642 C 63.222 137.546,62.902 140.018,62.793 141.134 C 62.683 142.251,62.373 144.434,62.103 145.986 C 61.833 147.538,61.613 149.150,61.615 149.568 C 61.617 149.986,61.350 152.101,61.023 154.269 C 59.745 162.720,59.218 166.385,59.082 167.761 C 59.004 168.549,58.733 170.484,58.480 172.060 C 58.227 173.636,57.963 175.516,57.895 176.239 C 57.827 176.961,57.513 179.325,57.198 181.493 C 56.883 183.660,56.520 186.239,56.391 187.224 C 56.262 188.209,55.984 190.251,55.772 191.761 C 55.560 193.272,55.126 196.388,54.806 198.687 C 54.487 200.985,53.951 204.746,53.615 207.045 C 53.278 209.343,53.006 211.515,53.009 211.870 C 53.012 212.226,52.748 214.053,52.423 215.930 C 52.097 217.807,51.778 220.042,51.714 220.896 C 51.650 221.749,51.374 223.728,51.101 225.293 C 50.828 226.858,50.511 229.061,50.398 230.188 C 50.193 232.221,49.734 235.499,48.587 243.104 C 48.261 245.272,47.994 247.367,47.996 247.761 C 47.997 248.155,47.778 249.767,47.510 251.343 C 47.242 252.919,46.963 254.854,46.891 255.642 C 46.819 256.430,46.502 258.683,46.186 260.648 C 45.870 262.614,45.614 264.548,45.616 264.947 C 45.619 265.346,45.356 267.391,45.033 269.493 C 44.135 275.330,43.243 281.524,43.090 282.985 C 43.015 283.707,42.700 286.072,42.390 288.239 C 42.081 290.406,41.545 294.221,41.199 296.716 C 40.853 299.212,40.346 302.758,40.071 304.597 C 39.797 306.436,39.492 308.746,39.394 309.731 C 39.296 310.716,38.999 312.973,38.735 314.746 C 38.470 316.519,37.970 320.066,37.624 322.627 C 37.278 325.188,36.730 329.003,36.406 331.104 C 36.082 333.206,35.757 335.624,35.684 336.478 C 35.610 337.331,35.288 339.580,34.969 341.475 C 34.649 343.370,34.388 345.269,34.388 345.696 C 34.388 346.122,34.165 347.795,33.892 349.414 C 33.619 351.033,33.301 353.272,33.186 354.388 C 33.071 355.504,32.761 357.869,32.497 359.642 C 32.234 361.415,31.749 364.800,31.420 367.164 C 31.092 369.528,30.594 373.021,30.316 374.925 C 30.037 376.830,29.713 379.301,29.597 380.418 C 29.480 381.534,29.168 383.737,28.902 385.313 C 28.637 386.890,28.419 388.505,28.419 388.904 C 28.418 389.302,28.155 391.237,27.833 393.202 C 27.511 395.168,27.180 397.475,27.098 398.328 C 27.015 399.182,26.733 401.170,26.471 402.746 C 26.209 404.322,25.939 406.310,25.870 407.164 C 25.802 408.018,25.487 410.275,25.172 412.179 C 24.856 414.084,24.598 416.026,24.598 416.496 C 24.597 416.965,24.376 418.575,24.106 420.074 C 23.837 421.572,23.524 423.713,23.411 424.832 C 23.208 426.849,22.747 430.140,21.602 437.731 C 21.276 439.899,21.010 442.004,21.012 442.410 C 21.013 442.816,20.751 444.697,20.428 446.589 C 20.105 448.482,19.779 450.728,19.703 451.582 C 19.627 452.436,19.301 454.746,18.978 456.716 C 18.655 458.687,18.391 460.621,18.392 461.015 C 18.392 461.409,18.129 463.451,17.805 465.552 C 17.482 467.654,16.941 471.415,16.602 473.910 C 16.264 476.406,15.724 480.328,15.403 482.627 C 15.082 484.925,14.541 488.848,14.201 491.343 C 13.862 493.839,13.322 497.618,13.001 499.741 C 12.680 501.865,12.418 503.912,12.418 504.291 C 12.418 504.670,12.160 506.533,11.845 508.430 C 11.529 510.328,11.203 512.579,11.119 513.433 C 11.035 514.287,10.707 516.758,10.390 518.925 C 9.734 523.403,8.895 529.379,7.990 536.000 C 6.603 546.157,6.161 549.314,5.600 553.075 C 5.276 555.242,5.012 557.325,5.013 557.704 C 5.015 558.319,4.228 563.576,3.929 564.955 L 3.812 565.493 198.918 565.493 L 394.024 565.493 393.884 563.642 C 393.808 562.624,393.487 560.218,393.171 558.296 C 392.855 556.374,392.598 554.439,392.599 553.997 C 392.600 553.556,392.339 551.421,392.019 549.254 C 391.310 544.444,390.724 540.217,390.413 537.672 C 390.285 536.621,389.923 533.988,389.608 531.821 C 389.294 529.654,388.971 527.236,388.889 526.448 C 388.808 525.660,388.481 523.349,388.162 521.313 C 387.844 519.278,387.583 517.297,387.583 516.913 C 387.582 516.528,387.320 514.486,387.000 512.375 C 386.110 506.514,385.370 501.090,385.187 499.104 C 385.097 498.119,384.796 495.755,384.519 493.851 C 383.682 488.094,383.251 484.993,383.008 482.985 C 382.881 481.934,382.519 479.301,382.204 477.134 C 381.889 474.967,381.581 472.624,381.519 471.928 C 381.457 471.232,381.183 469.136,380.910 467.271 C 379.646 458.653,379.162 455.141,378.992 453.373 C 378.891 452.322,378.574 449.851,378.288 447.881 C 378.002 445.910,377.502 442.472,377.176 440.239 C 376.851 438.006,376.588 435.910,376.592 435.582 C 376.595 435.254,376.333 433.158,376.008 430.925 C 375.684 428.693,375.142 424.824,374.805 422.328 C 374.468 419.833,373.927 415.910,373.603 413.612 C 373.278 411.313,372.950 408.788,372.873 408.000 C 372.797 407.212,372.529 405.331,372.279 403.821 C 372.029 402.310,371.761 400.376,371.684 399.522 C 371.606 398.669,371.283 396.349,370.966 394.368 C 370.648 392.387,370.388 390.399,370.389 389.950 C 370.389 389.206,370.114 387.188,368.686 377.484 C 368.419 375.673,368.106 373.201,367.990 371.991 C 367.874 370.781,367.561 368.555,367.295 367.045 C 367.029 365.534,366.810 363.864,366.808 363.333 C 366.807 362.803,366.546 360.761,366.228 358.796 C 365.910 356.831,365.595 354.579,365.527 353.791 C 365.458 353.003,365.187 350.907,364.923 349.134 C 364.476 346.127,364.306 344.898,363.340 337.672 C 362.690 332.810,361.787 326.199,361.186 321.910 C 360.864 319.612,360.564 317.301,360.518 316.776 C 360.422 315.659,359.609 309.812,358.787 304.318 C 358.469 302.195,358.209 300.130,358.209 299.729 C 358.209 299.329,357.947 297.358,357.627 295.351 C 357.307 293.344,356.982 290.949,356.905 290.030 C 356.829 289.110,356.549 287.083,356.283 285.525 C 356.017 283.966,355.710 281.763,355.600 280.629 C 355.490 279.495,355.174 277.009,354.899 275.104 C 354.623 273.200,354.127 269.627,353.796 267.164 C 352.793 259.702,352.049 254.197,351.417 249.552 C 351.087 247.122,350.713 244.328,350.587 243.343 C 350.279 240.941,349.698 236.689,349.005 231.761 C 348.691 229.528,348.335 226.842,348.213 225.791 C 348.003 223.975,347.546 220.720,346.485 213.480 C 346.224 211.701,345.912 209.283,345.792 208.107 C 345.672 206.932,345.357 204.519,345.093 202.746 C 344.829 200.973,344.336 197.427,343.998 194.866 C 343.277 189.401,342.464 183.351,341.624 177.194 C 341.292 174.764,340.963 172.239,340.893 171.582 C 340.822 170.925,340.504 168.615,340.186 166.448 C 339.612 162.541,338.988 157.990,337.794 149.015 C 337.454 146.454,336.913 142.424,336.592 140.060 C 336.271 137.696,335.736 133.719,335.403 131.224 C 335.069 128.728,334.571 125.128,334.295 123.224 C 334.019 121.319,333.710 118.901,333.608 117.851 C 333.506 116.800,333.203 114.543,332.936 112.836 C 332.669 111.128,332.348 108.818,332.223 107.701 C 332.098 106.585,331.771 104.113,331.495 102.209 C 331.220 100.304,330.719 96.704,330.381 94.209 C 330.043 91.713,329.509 87.845,329.192 85.612 C 328.876 83.379,328.559 80.907,328.486 80.119 C 328.414 79.331,328.142 77.236,327.881 75.463 C 327.620 73.690,327.134 70.197,326.801 67.701 C 326.467 65.206,325.930 61.230,325.607 58.866 C 325.285 56.501,324.964 54.030,324.895 53.373 C 324.825 52.716,324.509 50.406,324.192 48.239 C 323.874 46.072,323.333 42.203,322.989 39.642 C 322.645 37.081,322.144 33.481,321.875 31.642 C 321.606 29.803,321.298 27.439,321.190 26.388 C 321.083 25.337,320.820 23.349,320.605 21.970 C 320.391 20.591,320.120 18.580,320.004 17.501 C 319.888 16.422,319.575 14.058,319.309 12.247 C 319.043 10.437,318.741 8.257,318.637 7.403 L 318.448 5.851 200.074 5.791 C 123.193 5.752,81.650 5.813,81.556 5.964 M303.996 23.940 C 303.994 24.367,304.257 26.490,304.580 28.657 C 305.471 34.644,306.166 39.769,306.401 42.098 C 306.517 43.252,306.829 45.528,307.094 47.157 C 307.359 48.785,307.639 50.850,307.718 51.746 C 307.796 52.641,308.119 54.931,308.436 56.836 C 308.754 58.740,309.013 60.621,309.013 61.015 C 309.013 61.409,309.277 63.558,309.600 65.791 C 311.015 75.574,311.255 77.315,311.331 78.328 C 311.415 79.449,312.200 85.206,313.107 91.343 C 313.398 93.313,313.672 95.409,313.717 96.000 C 313.761 96.591,314.059 98.901,314.378 101.134 C 314.949 105.130,315.393 108.371,316.079 113.552 C 316.270 114.997,316.691 118.113,317.013 120.478 C 317.336 122.842,317.877 126.818,318.215 129.313 C 318.554 131.809,319.093 135.785,319.414 138.149 C 320.108 143.259,320.949 149.547,321.794 155.940 C 322.132 158.501,322.675 162.424,323.000 164.657 C 323.325 166.890,323.648 169.361,323.718 170.149 C 323.787 170.937,324.107 173.194,324.428 175.164 C 324.749 177.134,325.012 179.069,325.013 179.463 C 325.013 179.857,325.277 182.006,325.600 184.239 C 327.024 194.095,327.226 195.569,327.398 197.373 C 327.567 199.156,327.874 201.376,329.113 209.791 C 329.384 211.630,329.692 214.048,329.798 215.164 C 329.904 216.281,330.205 218.537,330.467 220.179 C 330.729 221.821,331.011 223.853,331.094 224.694 C 331.177 225.536,331.461 227.577,331.724 229.231 C 331.986 230.885,332.294 233.206,332.407 234.388 C 332.519 235.570,332.781 237.504,332.989 238.687 C 333.196 239.869,333.471 241.853,333.599 243.096 C 333.727 244.339,334.047 246.811,334.309 248.588 C 334.571 250.366,335.063 253.916,335.404 256.478 C 335.744 259.039,336.291 263.122,336.620 265.552 C 336.949 267.982,337.485 271.958,337.812 274.388 C 338.138 276.818,338.671 280.687,338.997 282.985 C 339.322 285.284,339.647 287.809,339.718 288.597 C 339.789 289.385,339.992 290.890,340.170 291.940 C 340.348 292.991,340.618 294.872,340.771 296.119 C 341.120 298.975,342.032 305.655,342.709 310.328 C 342.995 312.299,343.308 314.770,343.404 315.821 C 343.501 316.872,343.813 319.343,344.098 321.313 C 345.334 329.854,345.781 333.097,345.893 334.328 C 345.958 335.051,346.220 336.985,346.475 338.627 C 346.729 340.269,347.008 342.310,347.093 343.164 C 347.178 344.018,347.468 346.060,347.737 347.701 C 348.006 349.343,348.310 351.600,348.412 352.716 C 348.585 354.615,348.912 357.004,350.129 365.254 C 350.401 367.093,350.703 369.457,350.802 370.507 C 350.900 371.558,351.216 374.030,351.504 376.000 C 352.442 382.420,353.160 387.672,353.300 389.134 C 353.375 389.922,353.648 392.018,353.906 393.791 C 354.829 400.121,355.588 405.631,355.699 406.806 C 355.815 408.029,356.568 413.444,357.626 420.657 C 357.953 422.890,358.217 424.985,358.211 425.313 C 358.206 425.642,358.463 427.684,358.783 429.851 C 359.601 435.396,360.123 439.192,360.390 441.552 C 360.517 442.669,360.879 445.355,361.195 447.522 C 361.512 449.690,361.835 452.107,361.915 452.896 C 361.994 453.684,362.259 455.564,362.502 457.075 C 362.746 458.585,363.011 460.566,363.091 461.476 C 363.171 462.386,363.458 464.481,363.729 466.132 C 364.000 467.784,364.302 469.994,364.399 471.045 C 364.576 472.943,365.185 477.408,366.110 483.584 C 366.376 485.358,366.691 487.776,366.811 488.957 C 366.931 490.138,367.197 492.125,367.403 493.373 C 367.608 494.621,367.832 496.233,367.899 496.955 C 368.028 498.330,368.810 504.119,369.689 510.209 C 369.973 512.179,370.296 514.719,370.406 515.853 C 370.516 516.987,370.828 519.214,371.099 520.803 C 371.370 522.391,371.642 524.365,371.704 525.189 C 371.766 526.012,372.081 528.460,372.405 530.627 C 373.142 535.564,374.140 542.947,374.324 544.836 C 374.401 545.624,374.528 546.672,374.606 547.164 L 374.748 548.060 292.568 548.060 L 210.388 548.060 210.384 546.567 C 210.381 545.746,210.113 542.979,209.788 540.418 C 209.463 537.857,209.196 535.224,209.195 534.567 C 209.193 533.910,208.975 531.707,208.710 529.672 C 208.444 527.636,208.131 524.681,208.014 523.104 C 207.897 521.528,207.581 518.251,207.312 515.821 C 206.531 508.774,205.634 500.094,205.487 498.149 C 205.412 497.164,205.144 494.639,204.892 492.537 C 204.640 490.436,204.378 487.910,204.309 486.925 C 204.241 485.940,203.892 482.690,203.535 479.701 L 202.884 474.269 195.651 474.269 L 188.418 474.269 188.418 475.234 C 188.418 475.764,188.152 479.015,187.828 482.458 C 187.504 485.900,187.173 490.006,187.094 491.582 C 187.015 493.158,186.747 496.651,186.499 499.343 C 186.251 502.036,185.988 505.313,185.915 506.627 C 185.842 507.940,185.514 512.454,185.186 516.657 C 183.755 535.008,183.407 539.573,183.158 543.284 C 183.013 545.451,182.840 547.412,182.774 547.642 C 182.660 548.039,178.658 548.060,103.029 548.060 L 23.403 548.060 23.398 547.403 C 23.395 547.042,23.660 544.973,23.987 542.806 C 25.268 534.302,25.803 530.482,25.793 529.910 C 25.787 529.582,26.047 527.594,26.370 525.493 C 27.392 518.852,28.172 513.363,28.305 511.881 C 28.375 511.093,28.642 509.158,28.897 507.582 C 29.152 506.006,29.470 503.749,29.604 502.567 C 29.738 501.385,29.998 499.558,30.184 498.507 C 30.369 497.457,30.593 495.845,30.682 494.925 C 30.771 494.006,31.049 491.962,31.300 490.384 C 31.551 488.806,31.855 486.603,31.975 485.488 C 32.094 484.374,32.408 482.012,32.671 480.239 C 32.934 478.466,33.434 474.919,33.783 472.358 C 34.131 469.797,34.679 465.982,35.000 463.881 C 35.321 461.779,35.583 459.730,35.583 459.326 C 35.582 458.923,35.844 457.042,36.163 455.147 C 36.483 453.252,36.807 451.057,36.883 450.269 C 36.959 449.481,37.287 447.009,37.612 444.776 C 37.937 442.543,38.476 438.728,38.810 436.299 C 39.959 427.954,40.581 423.516,41.087 420.060 C 41.366 418.155,41.690 415.684,41.806 414.567 C 41.923 413.451,42.235 411.248,42.501 409.672 C 42.766 408.096,42.984 406.480,42.984 406.081 C 42.985 405.683,43.248 403.748,43.569 401.783 C 43.890 399.817,44.216 397.510,44.293 396.657 C 44.370 395.803,44.640 393.869,44.894 392.358 C 45.148 390.848,45.459 388.645,45.585 387.463 C 45.808 385.366,46.189 382.615,47.403 374.328 C 47.730 372.096,48.034 369.839,48.078 369.313 C 48.123 368.788,48.396 366.746,48.686 364.776 C 48.976 362.806,49.479 359.260,49.803 356.896 C 50.128 354.531,50.662 350.824,50.991 348.657 C 51.320 346.490,51.587 344.374,51.585 343.955 C 51.584 343.536,51.848 341.650,52.172 339.764 C 52.497 337.877,52.830 335.587,52.911 334.674 C 52.993 333.762,53.318 331.457,53.634 329.552 C 53.950 327.648,54.205 325.821,54.202 325.493 C 54.199 325.164,54.472 323.015,54.809 320.716 C 55.466 316.228,56.215 310.886,57.203 303.642 C 57.543 301.146,58.077 297.278,58.388 295.045 C 58.700 292.812,59.060 290.179,59.188 289.194 C 59.317 288.209,59.646 285.845,59.920 283.940 C 60.194 282.036,60.692 278.490,61.025 276.060 C 61.359 273.630,61.891 269.815,62.207 267.582 C 62.523 265.349,63.061 261.481,63.401 258.985 C 63.742 256.490,64.278 252.621,64.592 250.388 C 64.906 248.155,65.443 244.233,65.786 241.672 C 66.128 239.110,66.675 235.296,67.000 233.194 C 67.325 231.093,67.589 229.051,67.587 228.657 C 67.585 228.263,67.849 226.373,68.174 224.458 C 68.498 222.543,68.831 220.232,68.912 219.324 C 68.993 218.415,69.318 216.134,69.634 214.254 C 69.950 212.374,70.208 210.494,70.206 210.075 C 70.204 209.656,70.473 207.513,70.803 205.313 C 71.133 203.113,71.673 199.513,72.003 197.313 C 72.333 195.113,72.602 192.971,72.600 192.552 C 72.598 192.133,72.866 190.230,73.194 188.322 C 73.522 186.414,73.791 184.469,73.791 184.000 C 73.791 183.531,74.060 181.586,74.388 179.678 C 74.716 177.770,74.985 175.836,74.985 175.380 C 74.985 174.923,75.246 173.022,75.565 171.156 C 75.884 169.289,76.209 167.009,76.287 166.090 C 76.366 165.170,76.634 163.182,76.884 161.672 C 77.134 160.161,77.402 158.334,77.480 157.612 C 77.658 155.961,78.654 148.903,79.418 143.866 C 79.738 141.757,79.999 139.715,79.998 139.329 C 79.996 138.943,80.260 136.907,80.585 134.806 C 80.909 132.704,81.449 128.943,81.784 126.448 C 82.697 119.661,83.482 114.051,84.190 109.254 C 84.539 106.890,84.876 104.418,84.938 103.761 C 85.001 103.104,85.312 100.935,85.631 98.940 C 85.949 96.946,86.209 95.011,86.208 94.642 C 86.208 94.272,86.469 92.251,86.789 90.149 C 87.871 83.039,88.417 79.171,88.593 77.373 C 88.689 76.388,88.994 74.078,89.271 72.239 C 89.547 70.400,90.053 66.854,90.394 64.358 C 90.735 61.863,91.275 58.048,91.594 55.881 C 91.913 53.713,92.281 50.973,92.413 49.791 C 92.545 48.609,92.816 46.728,93.015 45.612 C 93.213 44.496,93.437 42.884,93.511 42.030 C 93.585 41.176,93.907 38.882,94.226 36.932 C 94.545 34.982,94.806 33.048,94.806 32.634 C 94.807 32.219,95.073 30.322,95.399 28.418 C 95.725 26.513,95.993 24.552,95.995 24.060 L 96.000 23.164 200.000 23.164 L 304.000 23.164 303.996 23.940 M102.368 31.443 C 102.281 31.530,102.209 31.987,102.208 32.458 C 102.208 32.928,101.942 34.872,101.616 36.776 C 101.290 38.681,101.022 40.654,101.019 41.162 C 101.017 41.669,100.751 43.657,100.429 45.579 C 100.106 47.502,99.780 49.773,99.704 50.627 C 99.627 51.481,99.301 53.791,98.978 55.761 C 98.655 57.731,98.392 59.666,98.393 60.060 C 98.394 60.454,98.127 62.549,97.800 64.716 C 97.202 68.681,96.541 73.407,95.411 81.791 C 95.075 84.287,94.539 88.209,94.220 90.507 C 93.902 92.806,93.536 95.493,93.408 96.478 C 93.006 99.565,92.402 103.848,91.774 108.060 C 91.441 110.293,91.119 112.710,91.057 113.433 C 90.996 114.155,90.686 116.319,90.368 118.241 C 90.051 120.164,89.791 122.111,89.791 122.569 C 89.791 123.026,89.571 124.668,89.302 126.217 C 89.033 127.766,88.720 129.956,88.607 131.084 C 88.494 132.212,88.170 134.746,87.887 136.716 C 87.154 141.810,86.272 148.114,85.998 150.209 C 85.486 154.133,84.952 157.913,84.396 161.552 C 84.075 163.654,83.769 165.964,83.716 166.687 C 83.663 167.409,83.399 169.343,83.129 170.985 C 82.859 172.627,82.580 174.561,82.508 175.284 C 82.376 176.601,81.578 182.394,80.697 188.418 C 80.437 190.191,80.123 192.555,79.998 193.672 C 79.872 194.788,79.559 197.152,79.302 198.925 C 78.865 201.941,78.427 205.093,77.013 215.403 C 76.697 217.701,76.149 221.570,75.793 224.000 C 75.437 226.430,75.110 228.848,75.065 229.373 C 74.974 230.457,74.009 237.383,73.303 242.030 C 73.044 243.737,72.726 246.155,72.597 247.403 C 72.468 248.651,72.148 250.907,71.885 252.418 C 71.621 253.928,71.405 255.559,71.405 256.041 C 71.404 256.523,71.134 258.503,70.806 260.441 C 70.478 262.380,70.209 264.338,70.209 264.792 C 70.209 265.247,69.994 266.878,69.731 268.418 C 69.469 269.958,69.158 272.119,69.042 273.221 C 68.926 274.323,68.559 277.051,68.228 279.284 C 67.506 284.153,66.622 290.425,66.495 291.582 C 66.410 292.349,65.794 296.836,64.821 303.761 C 64.609 305.272,64.331 307.313,64.203 308.299 C 64.074 309.284,63.713 311.916,63.400 314.149 C 63.087 316.382,62.552 320.304,62.212 322.866 C 61.872 325.427,61.328 329.242,61.004 331.343 C 60.679 333.445,60.413 335.540,60.413 336.000 C 60.413 336.460,60.148 338.392,59.824 340.294 C 59.500 342.195,59.169 344.506,59.089 345.428 C 59.009 346.350,58.740 348.287,58.492 349.731 C 58.245 351.176,57.941 353.325,57.817 354.507 C 57.694 355.690,57.372 358.161,57.102 360.000 C 56.833 361.839,56.335 365.385,55.998 367.881 C 55.660 370.376,55.124 374.299,54.808 376.597 C 54.491 378.896,53.952 382.818,53.610 385.313 C 53.269 387.809,52.727 391.624,52.406 393.791 C 52.085 395.958,51.764 398.376,51.692 399.164 C 51.621 399.952,51.299 402.209,50.977 404.179 C 50.655 406.149,50.389 408.137,50.387 408.597 C 50.385 409.057,50.117 410.991,49.791 412.896 C 49.465 414.800,49.198 416.711,49.196 417.142 C 49.195 417.572,48.934 419.614,48.616 421.679 C 47.860 426.595,47.296 430.655,46.999 433.313 C 46.867 434.496,46.501 437.035,46.186 438.957 C 45.870 440.879,45.611 442.867,45.610 443.375 C 45.609 443.883,45.340 445.846,45.013 447.737 C 44.686 449.628,44.418 451.534,44.418 451.972 C 44.418 452.409,44.158 454.354,43.839 456.294 C 43.521 458.234,43.194 460.466,43.113 461.254 C 43.032 462.042,42.708 464.460,42.393 466.627 C 42.078 468.794,41.538 472.663,41.192 475.224 C 40.451 480.711,39.610 486.855,38.805 492.657 C 38.486 494.955,37.947 498.878,37.606 501.373 C 37.266 503.869,36.722 507.737,36.398 509.970 C 36.074 512.203,35.756 514.621,35.691 515.343 C 35.626 516.066,35.364 517.893,35.110 519.403 C 34.855 520.913,34.583 522.848,34.505 523.701 C 34.428 524.555,34.108 526.973,33.795 529.075 C 33.106 533.698,32.421 538.691,32.385 539.343 C 32.352 539.941,174.978 540.239,175.472 539.642 C 175.608 539.478,175.790 537.570,175.877 535.403 C 175.964 533.236,176.296 527.999,176.614 523.766 C 176.933 519.532,177.194 515.269,177.194 514.292 C 177.194 513.315,177.348 510.546,177.537 508.138 C 177.919 503.250,178.263 498.119,178.614 492.060 C 178.743 489.827,179.006 485.690,179.199 482.866 C 179.392 480.042,179.669 475.636,179.814 473.075 C 179.960 470.513,180.143 467.854,180.221 467.164 L 180.364 465.910 195.376 465.910 L 210.388 465.910 210.408 467.761 C 210.418 468.779,210.463 469.881,210.507 470.209 C 210.551 470.537,210.646 471.451,210.719 472.239 C 210.792 473.027,211.012 475.176,211.208 477.015 C 211.403 478.854,211.623 481.433,211.696 482.746 C 211.769 484.060,212.046 487.069,212.312 489.433 C 212.577 491.797,212.885 495.128,212.996 496.836 C 213.106 498.543,213.430 502.412,213.715 505.433 C 213.999 508.454,214.492 513.827,214.809 517.373 C 215.126 520.919,215.617 526.239,215.901 529.194 C 216.185 532.149,216.462 535.427,216.517 536.478 C 216.572 537.528,216.671 538.737,216.737 539.164 L 216.857 539.940 290.777 539.940 L 364.697 539.940 364.537 538.090 C 364.449 537.072,364.113 534.466,363.791 532.299 C 363.469 530.131,363.151 527.821,363.085 527.164 C 363.019 526.507,362.704 524.090,362.385 521.791 C 361.599 516.130,361.082 512.259,360.805 509.970 C 360.678 508.919,360.316 506.179,360.001 503.881 C 359.318 498.898,358.755 494.675,358.423 492.060 C 358.290 491.009,357.922 488.322,357.605 486.090 C 357.287 483.857,356.976 481.493,356.912 480.836 C 356.848 480.179,356.529 477.761,356.202 475.463 C 355.876 473.164,355.327 469.188,354.984 466.627 C 354.640 464.066,354.101 460.090,353.786 457.791 C 353.471 455.493,353.168 453.075,353.114 452.418 C 353.059 451.761,352.781 449.612,352.496 447.642 C 351.792 442.777,350.889 436.162,350.573 433.552 C 350.429 432.370,350.161 430.436,349.976 429.254 C 349.792 428.072,349.586 426.460,349.519 425.672 C 349.452 424.884,349.185 422.842,348.926 421.134 C 348.667 419.427,348.350 417.116,348.221 416.000 C 348.093 414.884,347.770 412.466,347.504 410.627 C 347.237 408.788,346.907 406.370,346.769 405.254 C 346.630 404.137,346.364 402.203,346.176 400.955 C 345.989 399.707,345.774 398.000,345.700 397.162 C 345.625 396.323,345.352 394.281,345.093 392.624 C 344.834 390.967,344.519 388.699,344.392 387.582 C 344.266 386.466,343.991 384.316,343.782 382.806 C 343.573 381.296,343.130 378.018,342.797 375.522 C 342.464 373.027,341.920 369.104,341.587 366.806 C 341.254 364.507,340.947 362.116,340.905 361.492 C 340.863 360.868,340.552 358.450,340.214 356.119 C 339.876 353.788,339.324 349.785,338.987 347.224 C 337.985 339.598,337.218 333.978,336.590 329.672 C 336.265 327.439,335.996 325.182,335.994 324.657 C 335.991 324.131,335.896 323.272,335.783 322.746 C 335.670 322.221,335.409 320.555,335.202 319.045 C 334.995 317.534,334.597 314.633,334.319 312.597 C 334.040 310.561,333.710 307.928,333.586 306.746 C 333.461 305.564,333.151 303.304,332.898 301.724 C 332.644 300.144,332.376 298.116,332.302 297.216 C 332.228 296.316,331.901 293.959,331.576 291.977 C 331.251 289.996,330.985 288.055,330.985 287.663 C 330.985 287.272,330.722 285.119,330.401 282.879 C 330.080 280.639,329.586 277.194,329.304 275.224 C 329.022 273.254,328.693 270.648,328.572 269.433 C 328.452 268.218,328.140 265.962,327.879 264.418 C 327.619 262.875,327.405 261.290,327.404 260.896 C 327.404 260.502,327.130 258.246,326.796 255.881 C 325.677 247.962,325.035 243.234,324.898 241.910 C 324.824 241.188,324.602 239.576,324.406 238.328 C 324.210 237.081,323.939 235.146,323.804 234.030 C 323.668 232.913,323.300 230.119,322.986 227.821 C 322.311 222.893,321.745 218.652,321.407 216.000 C 321.273 214.949,320.907 212.209,320.593 209.910 C 320.279 207.612,319.919 204.925,319.793 203.940 C 319.544 202.001,319.106 198.777,318.203 192.239 C 317.886 189.940,317.562 187.415,317.483 186.627 C 317.404 185.839,317.134 183.894,316.884 182.305 C 316.633 180.716,316.365 178.675,316.288 177.768 C 316.211 176.861,315.886 174.511,315.566 172.546 C 315.247 170.580,314.987 168.699,314.990 168.366 C 314.995 167.810,314.725 165.813,313.297 155.821 C 313.015 153.851,312.704 151.379,312.605 150.328 C 312.506 149.278,312.202 146.913,311.929 145.075 C 311.376 141.356,310.282 133.246,310.110 131.582 C 309.981 130.342,309.582 127.516,309.268 125.612 C 309.148 124.890,308.986 123.546,308.907 122.627 C 308.828 121.707,308.506 119.290,308.191 117.254 C 307.877 115.218,307.513 112.639,307.384 111.522 C 307.070 108.822,306.153 102.048,304.700 91.701 C 304.415 89.666,304.100 87.140,304.002 86.090 C 303.904 85.039,303.599 82.621,303.324 80.716 C 303.049 78.812,302.593 75.642,302.309 73.672 C 302.026 71.701,301.704 69.162,301.594 68.028 C 301.484 66.894,301.180 64.691,300.918 63.132 C 300.656 61.574,300.387 59.654,300.321 58.866 C 300.207 57.517,299.580 52.915,298.467 45.254 C 298.200 43.415,297.892 40.943,297.783 39.761 C 297.675 38.579,297.363 36.287,297.091 34.668 C 296.819 33.049,296.597 31.625,296.597 31.504 C 296.597 31.251,102.621 31.190,102.368 31.443 M196.999 157.373 C 197.008 158.752,197.233 163.051,197.498 166.925 C 197.764 170.800,198.086 176.603,198.213 179.821 C 198.341 183.039,198.659 188.734,198.920 192.478 C 199.181 196.221,199.396 200.310,199.399 201.565 C 199.402 203.562,199.904 212.381,200.226 216.119 C 200.289 216.842,200.399 218.884,200.472 220.657 C 200.777 228.068,200.874 229.942,201.304 236.657 C 201.553 240.531,201.816 245.421,201.889 247.522 C 202.007 250.915,202.264 255.367,202.613 260.060 C 202.781 262.330,202.962 265.901,203.114 269.970 C 203.306 275.073,204.328 290.617,204.483 290.772 C 204.554 290.843,204.982 290.275,205.434 289.510 C 205.886 288.745,207.145 286.669,208.233 284.896 C 209.321 283.122,210.973 280.409,211.905 278.866 L 213.600 276.060 219.039 276.060 C 222.030 276.060,224.478 276.112,224.478 276.176 C 224.478 276.334,221.757 280.628,217.658 286.939 C 216.468 288.770,214.373 292.012,213.001 294.144 C 211.630 296.275,210.004 298.801,209.389 299.756 C 207.066 303.361,205.722 305.487,205.448 305.989 C 205.137 306.560,205.247 309.577,206.114 324.179 C 206.379 328.645,206.694 334.718,206.814 337.674 C 206.933 340.631,207.198 345.413,207.401 348.301 C 207.605 351.189,207.873 356.078,207.997 359.164 C 208.121 362.251,208.434 368.161,208.693 372.299 C 208.952 376.436,209.226 381.487,209.302 383.522 C 209.377 385.558,209.598 389.588,209.792 392.478 C 209.986 395.367,210.146 398.081,210.147 398.507 L 210.149 399.284 195.701 399.284 C 187.755 399.284,181.255 399.203,181.256 399.104 C 181.257 399.006,181.414 396.722,181.604 394.030 C 181.794 391.337,182.013 387.684,182.089 385.910 C 182.166 384.137,182.489 378.334,182.807 373.015 C 183.125 367.696,183.559 360.281,183.772 356.537 C 183.984 352.794,184.198 349.477,184.247 349.166 C 184.297 348.854,184.398 346.974,184.473 344.987 C 184.548 342.999,184.873 337.075,185.194 331.821 C 185.515 326.567,185.892 320.119,186.032 317.493 C 186.171 314.866,186.392 311.266,186.522 309.493 C 186.652 307.719,186.855 303.988,186.974 301.201 L 187.190 296.134 185.578 293.679 C 184.692 292.329,183.446 290.418,182.809 289.433 C 181.233 286.996,179.108 283.729,176.617 279.916 C 175.471 278.162,174.476 276.577,174.405 276.394 C 174.298 276.114,175.164 276.060,179.772 276.060 L 185.267 276.060 186.649 278.376 C 188.261 281.078,188.359 281.011,188.388 277.203 C 188.398 275.983,188.619 272.084,188.880 268.537 C 189.141 264.991,189.422 260.424,189.503 258.388 C 189.584 256.352,189.860 251.570,190.116 247.761 C 190.371 243.952,190.640 239.278,190.712 237.373 C 190.785 235.469,191.104 230.104,191.422 225.452 C 191.740 220.800,192.002 216.072,192.004 214.945 C 192.007 213.818,192.223 209.994,192.485 206.448 C 192.748 202.901,193.065 197.582,193.190 194.627 C 193.315 191.672,193.585 186.943,193.790 184.119 C 193.995 181.296,194.259 176.782,194.377 174.090 C 194.495 171.397,194.812 165.701,195.083 161.433 C 195.353 157.164,195.705 151.254,195.866 148.299 L 196.158 142.925 196.570 148.896 C 196.797 152.179,196.990 155.994,196.999 157.373 M144.934 277.075 C 145.175 277.633,146.098 279.594,146.985 281.433 C 147.872 283.272,149.268 286.173,150.088 287.881 C 150.908 289.588,152.304 292.490,153.189 294.328 C 154.074 296.167,155.312 298.746,155.940 300.060 C 156.567 301.373,158.221 304.796,159.615 307.667 C 161.009 310.537,162.149 312.914,162.149 312.950 C 162.149 312.985,163.264 315.311,164.625 318.119 C 165.987 320.927,167.641 324.352,168.300 325.731 C 168.959 327.110,170.265 329.830,171.202 331.775 C 172.139 333.720,172.844 335.413,172.767 335.536 C 172.688 335.666,170.466 335.761,167.547 335.761 L 162.466 335.761 161.363 333.313 C 160.067 330.435,157.745 325.076,157.535 324.478 C 157.397 324.086,156.526 324.060,143.801 324.060 L 130.214 324.060 129.559 325.552 C 129.199 326.373,128.319 328.388,127.603 330.030 C 126.888 331.672,126.068 333.552,125.781 334.209 C 125.072 335.830,125.361 335.753,119.954 335.758 C 114.421 335.762,114.627 335.861,115.684 333.704 C 116.127 332.800,117.050 330.878,117.736 329.433 C 118.421 327.988,119.627 325.463,120.416 323.821 C 121.205 322.179,122.414 319.654,123.103 318.209 C 124.646 314.975,133.907 295.584,135.706 291.821 C 136.428 290.310,137.557 287.946,138.215 286.567 C 138.872 285.188,140.228 282.359,141.228 280.280 C 142.227 278.202,143.045 276.402,143.045 276.280 C 143.045 275.496,144.519 276.116,144.934 277.075 M255.743 276.597 C 255.858 276.893,256.782 278.854,257.795 280.955 C 258.808 283.057,260.337 286.227,261.192 288.000 C 263.645 293.086,265.984 297.953,267.159 300.418 C 267.753 301.666,269.301 304.874,270.598 307.548 C 271.894 310.221,272.955 312.438,272.955 312.474 C 272.955 312.510,274.352 315.409,276.060 318.916 C 277.767 322.423,279.164 325.324,279.164 325.362 C 279.164 325.400,280.242 327.653,281.560 330.368 C 282.877 333.083,283.892 335.407,283.814 335.533 C 283.458 336.110,273.710 335.803,273.317 335.202 C 273.003 334.724,269.846 327.666,268.733 324.953 L 268.364 324.056 254.769 324.117 L 241.174 324.179 240.602 325.493 C 240.287 326.215,239.378 328.310,238.582 330.149 C 237.786 331.988,236.893 333.976,236.597 334.567 L 236.060 335.642 231.290 335.707 C 228.667 335.742,226.387 335.720,226.224 335.658 C 225.882 335.526,226.129 334.923,228.772 329.433 C 229.721 327.463,232.676 321.284,235.339 315.701 C 238.002 310.119,240.852 304.155,241.671 302.448 C 243.155 299.354,244.447 296.646,246.656 292.000 C 247.296 290.654,248.414 288.316,249.140 286.806 C 249.867 285.296,251.326 282.260,252.383 280.060 C 254.425 275.809,255.147 275.065,255.743 276.597 M195.966 290.049 C 195.612 290.971,195.824 293.373,196.322 294.090 L 196.820 294.806 196.679 293.278 C 196.601 292.438,196.537 291.283,196.537 290.711 C 196.537 289.675,196.241 289.332,195.966 290.049 M143.222 294.868 C 142.879 295.622,141.721 298.227,140.649 300.657 C 138.339 305.890,138.354 305.856,136.005 311.045 C 134.993 313.278,134.110 315.239,134.043 315.403 C 133.945 315.639,135.976 315.701,143.736 315.701 C 149.135 315.701,153.552 315.657,153.552 315.602 C 153.552 315.547,153.059 314.392,152.456 313.035 C 151.853 311.677,151.169 310.137,150.937 309.612 C 150.704 309.087,149.632 306.669,148.555 304.239 C 146.268 299.082,145.721 297.828,144.697 295.403 C 144.282 294.418,143.920 293.586,143.894 293.555 C 143.868 293.524,143.566 294.115,143.222 294.868 M253.494 296.678 C 251.493 301.178,251.335 301.531,248.116 308.657 C 246.513 312.203,245.149 315.239,245.083 315.403 C 244.989 315.639,247.023 315.701,254.780 315.701 C 260.180 315.701,264.597 315.654,264.597 315.595 C 264.597 315.537,263.620 313.307,262.426 310.640 C 261.232 307.973,259.346 303.696,258.235 301.134 C 257.124 298.573,255.917 295.815,255.553 295.006 L 254.891 293.535 253.494 296.678 M194.304 315.878 C 194.217 317.948,194.095 320.125,194.032 320.716 C 193.776 323.158,193.440 327.703,193.318 330.388 C 193.246 331.964,192.920 337.230,192.593 342.090 C 192.265 346.949,191.727 355.116,191.395 360.239 C 191.064 365.361,190.530 373.421,190.209 378.149 C 189.887 382.878,189.582 387.794,189.532 389.075 L 189.440 391.403 196.212 391.403 L 202.985 391.403 202.991 390.627 C 202.994 390.200,202.725 385.928,202.393 381.134 C 202.061 376.340,201.523 368.334,201.197 363.343 C 200.871 358.352,200.313 350.108,199.958 345.023 L 199.311 335.778 197.148 335.710 L 194.985 335.642 194.866 324.020 C 194.741 311.915,194.574 309.486,194.304 315.878 " stroke="none" fill="#0c1454" fill-rule="evenodd"></path><path id="path2" d="" stroke="none" fill="#233992" fill-rule="evenodd"></path><path id="path3" d="M147.861 23.343 C 176.450 23.377,223.304 23.377,251.981 23.343 C 280.657 23.310,257.266 23.283,200.000 23.282 C 142.734 23.282,119.272 23.310,147.861 23.343 M194.573 311.821 C 194.528 311.919,194.559 312.484,194.642 313.075 L 194.794 314.149 194.830 312.896 C 194.863 311.737,194.777 311.377,194.573 311.821 M136.896 324.000 C 140.672 324.037,146.851 324.037,150.627 324.000 C 154.403 323.963,151.313 323.933,143.761 323.933 C 136.209 323.933,133.119 323.963,136.896 324.000 M247.940 324.000 C 251.716 324.037,257.896 324.037,261.672 324.000 C 265.448 323.963,262.358 323.933,254.806 323.933 C 247.254 323.933,244.164 323.963,247.940 324.000 M117.565 335.701 C 118.984 335.743,121.241 335.743,122.580 335.700 C 123.919 335.658,122.758 335.623,120.000 335.623 C 117.242 335.624,116.146 335.658,117.565 335.701 M164.823 335.700 C 166.227 335.743,168.591 335.743,170.076 335.701 C 171.561 335.659,170.412 335.624,167.522 335.624 C 164.633 335.624,163.418 335.658,164.823 335.700 M196.127 335.698 C 196.754 335.748,197.722 335.747,198.276 335.697 C 198.830 335.647,198.316 335.606,197.134 335.607 C 195.952 335.608,195.499 335.649,196.127 335.698 M228.610 335.701 C 230.029 335.743,232.286 335.743,233.625 335.700 C 234.964 335.658,233.803 335.623,231.045 335.623 C 228.287 335.624,227.191 335.658,228.610 335.701 M276.119 335.701 C 277.531 335.743,279.842 335.743,281.254 335.701 C 282.666 335.658,281.510 335.624,278.687 335.624 C 275.863 335.624,274.707 335.658,276.119 335.701 " stroke="none" fill="#1c2c76" fill-rule="evenodd"></path><path id="path4" d="M177.028 276.238 C 178.579 276.280,181.051 276.280,182.521 276.238 C 183.991 276.196,182.722 276.162,179.701 276.162 C 176.681 276.162,175.478 276.196,177.028 276.238 M213.648 276.239 C 213.587 276.337,215.166 276.390,217.157 276.356 C 223.925 276.241,224.609 276.157,219.178 276.108 C 216.198 276.082,213.709 276.140,213.648 276.239 M194.810 321.085 C 194.845 327.646,194.905 333.606,194.944 334.328 C 194.983 335.051,195.022 330.000,195.031 323.104 C 195.040 316.209,194.980 310.249,194.897 309.861 C 194.814 309.472,194.775 314.523,194.810 321.085 " stroke="none" fill="#2c44a4" fill-rule="evenodd"></path></g></svg>