<?xml version="1.0" encoding="UTF-8"?>
<svg version="1.1" xmlns="http://www.w3.org/2000/svg" width="225" height="225">
<path d="M0 0 C74.25 0 148.5 0 225 0 C225 74.25 225 148.5 225 225 C150.75 225 76.5 225 0 225 C0 150.75 0 76.5 0 0 Z " fill="#147EB8" transform="translate(0,0)"/>
<path d="M0 0 C0.70439209 0.01015137 1.40878418 0.02030273 2.13452148 0.03076172 C9.9595537 0.26461534 15.62553402 2.17168324 21.45703125 7.49609375 C26.83952528 13.79531426 29.19342663 21.10133506 29.17602539 29.24511719 C29.17591209 31.01650055 29.17591209 31.01650055 29.17579651 32.82366943 C29.17063522 34.09357727 29.16547394 35.36348511 29.16015625 36.671875 C29.1587413 37.97578186 29.15732635 39.27968872 29.15586853 40.62310791 C29.15205867 44.08203055 29.14224151 47.54091091 29.13116455 50.99981689 C29.12091746 54.53242419 29.11636385 58.06503836 29.11132812 61.59765625 C29.10061782 68.52345658 29.08303346 75.4492219 29.0625 82.375 C20.8125 82.375 12.5625 82.375 4.0625 82.375 C4.02511719 78.83523437 3.98773438 75.29546875 3.94921875 71.6484375 C3.90298266 68.2129912 3.85175643 64.77765295 3.80004883 61.34228516 C3.76683354 58.95823759 3.73879108 56.57411203 3.71606445 54.18994141 C3.68245682 50.75910261 3.63013593 47.32897637 3.57421875 43.8984375 C3.56782883 42.83571625 3.5614389 41.772995 3.55485535 40.67807007 C3.44668818 35.21027607 3.24767921 31.04177951 0.0625 26.375 C-4.3788312 23.27639684 -8.66201157 22.4483673 -13.9375 23.375 C-18.42030617 25.48953121 -20.48465059 27.62100209 -22.33071899 32.21121216 C-23.55519834 36.57771917 -23.42081935 41.05280225 -23.44921875 45.55859375 C-23.46716995 46.61409927 -23.48512115 47.6696048 -23.50361633 48.75709534 C-23.55754359 52.10885698 -23.59155917 55.46047762 -23.625 58.8125 C-23.65818853 61.0931185 -23.6926796 63.37371844 -23.72851562 65.65429688 C-23.81569795 71.22788292 -23.87591878 76.80083778 -23.9375 82.375 C-31.8575 82.375 -39.7775 82.375 -47.9375 82.375 C-47.9375 55.975 -47.9375 29.575 -47.9375 2.375 C-40.0175 2.375 -32.0975 2.375 -23.9375 2.375 C-23.6075 5.015 -23.2775 7.655 -22.9375 10.375 C-22.44121094 9.90449219 -21.94492188 9.43398437 -21.43359375 8.94921875 C-20.75425781 8.32660156 -20.07492188 7.70398438 -19.375 7.0625 C-18.71371094 6.44761719 -18.05242187 5.83273438 -17.37109375 5.19921875 C-11.93270524 1.12260971 -6.69421602 -0.13947953 0 0 Z " fill="#FCFDFD" transform="translate(145.9375,84.625)"/>
<path d="M0 0 C0.33 0 0.66 0 1 0 C1 33.99 1 67.98 1 103 C-32.99 103 -66.98 103 -102 103 C-102 102.67 -102 102.34 -102 102 C-100.90945312 101.85304688 -99.81890625 101.70609375 -98.6953125 101.5546875 C-75.70989413 98.23208364 -52.88961352 90.18982131 -36.2890625 73.23046875 C-34 71 -34 71 -32 71 C-31.75378906 70.42894531 -31.50757813 69.85789062 -31.25390625 69.26953125 C-29.79562004 66.63007863 -28.04711885 64.84176687 -25.9375 62.6875 C-10.27658902 45.54106852 -2.6241158 22.71931841 0 0 Z " fill="#FEFEFE" transform="translate(224,122)"/>
<path d="M0 0 C0.33 0 0.66 0 1 0 C1.08636719 0.969375 1.17273438 1.93875 1.26171875 2.9375 C2.28183983 13.12074643 4.44314996 22.40891523 8 32 C8.24347168 32.66 8.48694336 33.32 8.73779297 34 C12.94106874 45.08603836 18.8259299 54.59133992 26 64 C26.69609375 64.91394531 27.3921875 65.82789063 28.109375 66.76953125 C45.67892061 87.84617608 73.45641289 101.05933465 100.45703125 103.80859375 C101.29621094 103.87175781 102.13539062 103.93492187 103 104 C103 104.33 103 104.66 103 105 C69.01 105 35.02 105 0 105 C0 70.35 0 35.7 0 0 Z " fill="#FDFEFE" transform="translate(0,120)"/>
<path d="M0 0 C33.66 0 67.32 0 102 0 C102 33.99 102 67.98 102 103 C101.67 103 101.34 103 101 103 C100.86464844 101.84886719 100.72929687 100.69773437 100.58984375 99.51171875 C97.64052003 76.83368063 89.06804971 56.33149065 74 39 C73.52304688 38.3915625 73.04609375 37.783125 72.5546875 37.15625 C55.21375578 15.35622156 26.59718272 5.00422702 0 1 C0 0.67 0 0.34 0 0 Z " fill="#FDFEFE" transform="translate(123,0)"/>
<path d="M0 0 C33.33 0 66.66 0 101 0 C101 0.33 101 0.66 101 1 C99.741875 1.21914063 98.48375 1.43828125 97.1875 1.6640625 C74.60208658 5.770703 55.35111692 13.63340032 38 29 C37.45996338 29.43723389 36.91992676 29.87446777 36.36352539 30.32495117 C31.76818621 34.08604199 28.13289041 38.20321768 24.5625 42.9375 C23.71836548 44.05620483 23.71836548 44.05620483 22.85717773 45.19750977 C10.44575609 61.99844525 4.18748434 80.47707451 1 101 C0.67 101 0.34 101 0 101 C0 67.67 0 34.34 0 0 Z " fill="#FEFEFE" transform="translate(0,0)"/>
<path d="M0 0 C8.25 0 16.5 0 25 0 C25 26.4 25 52.8 25 80 C16.75 80 8.5 80 0 80 C0 53.6 0 27.2 0 0 Z " fill="#FEFEFD" transform="translate(58,87)"/>
<path d="M0 0 C4.74127206 2.0117173 7.35276758 4.39127266 9.3359375 9.17578125 C10.35424961 13.15070989 10.22525808 16.50152823 8.90234375 20.38671875 C6.70946291 24.01393675 4.13587452 26.58659068 0.58984375 28.88671875 C-4.28330478 29.79335103 -8.7924195 29.72454045 -13.1640625 27.1875 C-18.10116168 23.26049627 -19.69096946 19.64021305 -20.47265625 13.38671875 C-19.83968085 8.32291552 -17.22125233 5.37655339 -13.47265625 2.07421875 C-9.05581915 -1.06406024 -5.32871238 -1.55792894 0 0 Z " fill="#FAFBFC" transform="translate(75.09765625,47.61328125)"/>
<path d="M0 0 C4.51257863 4.076748 5.76123801 9.12948593 6.25643921 15.08303833 C6.346012 18.65448138 6.33742867 22.21287755 6.29296875 25.78515625 C6.28872391 27.08198837 6.28447906 28.3788205 6.28010559 29.71495056 C6.26874898 33.13286256 6.23936355 36.55038117 6.20599365 39.96813965 C6.17509233 43.46763796 6.16155777 46.96720094 6.14648438 50.46679688 C6.11448284 57.31137404 6.06179233 64.15562753 6 71 C-2.25 71 -10.5 71 -19 71 C-19 56.48 -19 41.96 -19 27 C-18.67 27 -18.34 27 -18 27 C-18 39.87 -18 52.74 -18 66 C-12.39 66 -6.78 66 -1 66 C-1 65.34 -1 64.68 -1 64 C-0.34 64 0.32 64 1 64 C0.99777939 63.41641724 0.99555878 62.83283447 0.99327087 62.23156738 C0.97106585 56.13159805 0.95603012 50.0316403 0.94506836 43.93164062 C0.94005436 41.65819838 0.93324152 39.38475933 0.92456055 37.11132812 C0.91236617 33.83462736 0.90674222 30.5579694 0.90234375 27.28125 C0.89718246 26.27259888 0.89202118 25.26394775 0.88670349 24.22473145 C0.88627045 18.71853538 1.18353034 13.44689793 2 8 C1.01 8 0.02 8 -1 8 C-0.67 5.36 -0.34 2.72 0 0 Z " fill="#E9F1F4" transform="translate(169,96)"/>
<path d="M0 0 C2 2 2 2 2.125 5.125 C2.08375 6.07375 2.0425 7.0225 2 8 C-0.31 7.67 -2.62 7.34 -5 7 C-5.33 9.97 -5.66 12.94 -6 16 C-7.093125 16.12375 -8.18625 16.2475 -9.3125 16.375 C-13.07381802 16.75464801 -13.07381802 16.75464801 -16 19 C-15.34 19.33 -14.68 19.66 -14 20 C-15 22 -15 22 -17.4375 22.9375 C-20.29863959 23.84547289 -20.29863959 23.84547289 -22 27 C-22.16713569 29.62531524 -22.16713569 29.62531524 -22 32 C-22.5775 31.7525 -23.155 31.505 -23.75 31.25 C-24.4925 31.1675 -25.235 31.085 -26 31 C-26.639375 31.66 -27.27875 32.32 -27.9375 33 C-28.618125 33.66 -29.29875 34.32 -30 35 C-32.62890625 34.625 -32.62890625 34.625 -35 34 C-25.93521493 19.4757421 -14.10294661 9.51413535 0 0 Z " fill="#258ABC" transform="translate(54,16)"/>
<path d="M0 0 C8.25 0 16.5 0 25 0 C25 26.4 25 52.8 25 80 C16.75 80 8.5 80 0 80 C0 53.6 0 27.2 0 0 Z M1 1 C1 25.42 1 49.84 1 75 C7.93 75 14.86 75 22 75 C22.495 75.495 22.495 75.495 23 76 C17.06 76 11.12 76 5 76 C5 76.99 5 77.98 5 79 C11.27 79 17.54 79 24 79 C24 53.26 24 27.52 24 1 C16.41 1 8.82 1 1 1 Z " fill="#DAEBF3" transform="translate(58,87)"/>
<path d="M0 0 C-1.32 1.32 -2.64 2.64 -4 4 C-3.34 4.66 -2.68 5.32 -2 6 C-3.03125 5.95875 -4.0625 5.9175 -5.125 5.875 C-8.84479959 5.77171983 -8.84479959 5.77171983 -11.46875 7 C-16.75207538 8.49616294 -21.91481533 8.20860707 -27.375 8.125 C-28.49261719 8.11597656 -29.61023438 8.10695313 -30.76171875 8.09765625 C-33.50803462 8.07418346 -36.25390472 8.04134728 -39 8 C-39 7.34 -39 6.68 -39 6 C-26.4952327 1.22545249 -13.34709856 -0.62673332 0 0 Z " fill="#1E86BB" transform="translate(114,0)"/>
<path d="M0 0 C0.99 0.33 1.98 0.66 3 1 C3 16.51 3 32.02 3 48 C2.505 46.515 2.505 46.515 2 45 C1.34 45 0.68 45 0 45 C-0.33 45.99 -0.66 46.98 -1 48 C-1.66 47.67 -2.32 47.34 -3 47 C-2.90594109 41.59199502 -2.79973448 36.18441032 -2.68261719 30.77685547 C-2.64450427 28.94000658 -2.60962161 27.10308754 -2.578125 25.26611328 C-2.53208774 22.61465506 -2.47416016 19.96367244 -2.4140625 17.3125 C-2.40251129 16.50071289 -2.39096008 15.68892578 -2.37905884 14.85253906 C-2.24577171 9.61887437 -1.43589715 5.03823561 0 0 Z " fill="#0E75B3" transform="translate(147,118)"/>
<path d="M0 0 C0.33 0 0.66 0 1 0 C1.33 6.93 1.66 13.86 2 21 C2.33 15.72 2.66 10.44 3 5 C3.66 5 4.32 5 5 5 C5.16771068 9.64455904 5.32825993 14.28928955 5.48217773 18.93432617 C5.53554679 20.51447204 5.59087216 22.09455311 5.64819336 23.67456055 C5.73024686 25.94565863 5.80526189 28.21689686 5.87890625 30.48828125 C5.90594131 31.19463211 5.93297638 31.90098297 5.96083069 32.6287384 C6.05545931 35.73867939 5.99373539 38.01879384 5 41 C3.68 41 2.36 41 1 41 C0.67 42.32 0.34 43.64 0 45 C0 30.15 0 15.3 0 0 Z " fill="#0978B5" transform="translate(122,123)"/>
<path d="M0 0 C2.17585822 3.26378733 2.24605016 4.15904315 2.22705078 7.93041992 C2.22689972 8.93123093 2.22674866 9.93204193 2.22659302 10.96318054 C2.21627045 12.04138565 2.20594788 13.11959076 2.1953125 14.23046875 C2.1924826 15.33602615 2.18965271 16.44158356 2.18673706 17.5806427 C2.17553002 21.11637128 2.15042427 24.6518478 2.125 28.1875 C2.11497089 30.58267864 2.10584492 32.97786124 2.09765625 35.37304688 C2.07558897 41.24878411 2.04210618 47.12437405 2 53 C1.01 53 0.02 53 -1 53 C-1.02531773 45.93417118 -1.04285324 38.86835402 -1.05493164 31.80249023 C-1.05996598 29.39786339 -1.06679386 26.99323962 -1.07543945 24.58862305 C-1.08754429 21.13589725 -1.09323726 17.68321186 -1.09765625 14.23046875 C-1.10281754 13.15226364 -1.10797882 12.07405853 -1.11329651 10.96318054 C-1.11337204 9.96236954 -1.11344757 8.96155853 -1.11352539 7.93041992 C-1.115746 7.04883713 -1.11796661 6.16725433 -1.12025452 5.25895691 C-1 3 -1 3 0 0 Z " fill="#FCFDFE" transform="translate(173,109)"/>
<path d="M0 0 C5.71687971 -0.14179409 10.95028761 0.31858355 16.5625 1.375 C17.63661133 1.56449219 17.63661133 1.56449219 18.73242188 1.7578125 C23.2513343 2.58018055 27.60346341 3.67121759 32 5 C30.21212911 7.30817298 29.33591791 7.95196673 26.39624023 8.37231445 C25.37731689 8.3693335 24.35839355 8.36635254 23.30859375 8.36328125 C22.19935547 8.36263672 21.09011719 8.36199219 19.94726562 8.36132812 C18.20993164 8.3371582 18.20993164 8.3371582 16.4375 8.3125 C15.27541016 8.31572266 14.11332031 8.31894531 12.91601562 8.32226562 C4.26691946 8.26691946 4.26691946 8.26691946 2 6 C5.465 5.505 5.465 5.505 9 5 C6.36 4.67 3.72 4.34 1 4 C0.67 2.68 0.34 1.36 0 0 Z " fill="#2085BB" transform="translate(115,0)"/>
<path d="M0 0 C0.928125 0.515625 1.85625 1.03125 2.8125 1.5625 C-0.94150238 5.6839767 -4.6933553 8.25571511 -9.625 10.8125 C-10.26759766 11.163125 -10.91019531 11.51375 -11.57226562 11.875 C-15.43833107 13.91596856 -18.77708887 15.09896375 -23.1875 15.5625 C-23.1875 12.5925 -23.1875 9.6225 -23.1875 6.5625 C-21.08340361 6.53548592 -18.97920822 6.51609777 -16.875 6.5 C-15.70324219 6.48839844 -14.53148437 6.47679687 -13.32421875 6.46484375 C-10.1875 6.5625 -10.1875 6.5625 -7.1875 7.5625 C-7.1875 6.9025 -7.1875 6.2425 -7.1875 5.5625 C-5.8675 5.2325 -4.5475 4.9025 -3.1875 4.5625 C-3.1875 3.9025 -3.1875 3.2425 -3.1875 2.5625 C-4.5075 2.8925 -5.8275 3.2225 -7.1875 3.5625 C-6.875 1.625 -6.875 1.625 -6.1875 -0.4375 C-3.1875 -1.4375 -3.1875 -1.4375 0 0 Z " fill="#1075AD" transform="translate(175.1875,201.4375)"/>
<path d="M0 0 C0 1.32 0 2.64 0 4 C-0.66 4 -1.32 4 -2 4 C-2 4.66 -2 5.32 -2 6 C-1.34 6.33 -0.68 6.66 0 7 C-3.5062443 8.1687481 -6.6477866 8.12514267 -10.29296875 8.09765625 C-11.35201164 8.09553383 -11.35201164 8.09553383 -12.43244934 8.09336853 C-14.68417626 8.08777764 -16.93580321 8.07522688 -19.1875 8.0625 C-20.71549335 8.05748382 -22.24348827 8.05292112 -23.77148438 8.04882812 C-27.51436135 8.0378112 -31.25716373 8.02055287 -35 8 C-35 7.67 -35 7.34 -35 7 C-33.87464844 6.84144531 -32.74929687 6.68289062 -31.58984375 6.51953125 C-22.26799185 5.12778366 -13.68412047 3.17742941 -4.84375 -0.109375 C-2 -1 -2 -1 0 0 Z " fill="#F4F7FA" transform="translate(157,217)"/>
<path d="M0 0 C10.89 0 21.78 0 33 0 C33 0.66 33 1.32 33 2 C32.01 2.33 31.02 2.66 30 3 C30.33 3.66 30.66 4.32 31 5 C30.34 5 29.68 5 29 5 C29 5.66 29 6.32 29 7 C27.99582031 6.73445312 26.99164063 6.46890625 25.95703125 6.1953125 C17.33600694 3.95537052 8.84341524 2.15085541 0 1 C0 0.67 0 0.34 0 0 Z " fill="#F2F6F8" transform="translate(123,0)"/>
<path d="M0 0 C0.33 0 0.66 0 1 0 C3.35778931 20.45835646 3.35778931 20.45835646 -1 28 C-5.0982389 20.73729815 -5.54549329 12.03656513 -4 4 C-2.68 4 -1.36 4 0 4 C0 2.68 0 1.36 0 0 Z " fill="#2086BC" transform="translate(6,116)"/>
<path d="M0 0 C0.33 0 0.66 0 1 0 C1.09796875 0.98097656 1.1959375 1.96195312 1.296875 2.97265625 C2.3410955 12.63832779 4.23954123 21.67340144 7 31 C6.34 31 5.68 31 5 31 C4.505 32.485 4.505 32.485 4 34 C1 32 1 32 0 29 C-0.08358958 26.78910055 -0.10731764 24.57573922 -0.09765625 22.36328125 C-0.09443359 21.06455078 -0.09121094 19.76582031 -0.08789062 18.42773438 C-0.07953531 17.05598892 -0.07107037 15.68424413 -0.0625 14.3125 C-0.05748335 12.92903805 -0.05292073 11.54557437 -0.04882812 10.16210938 C-0.03702529 6.77469605 -0.02056019 3.38736967 0 0 Z " fill="#EEF4F8" transform="translate(0,120)"/>
<path d="M0 0 C0 0.66 0 1.32 0 2 C0.99 2 1.98 2 3 2 C3 1.34 3 0.68 3 0 C5.28773563 1.14386782 6.49284711 1.91869363 8 4 C7.6875 7.1875 7.6875 7.1875 7 10 C4.69 9.01 2.38 8.02 0 7 C0 6.34 0 5.68 0 5 C-2.64 5.33 -5.28 5.66 -8 6 C-8 4.35 -8 2.7 -8 1 C-2.25 0 -2.25 0 0 0 Z " fill="#2186BA" transform="translate(72,40)"/>
<path d="M0 0 C0.79921875 0.09925781 1.5984375 0.19851562 2.421875 0.30078125 C4.86677987 0.65065557 7.27812232 1.08094697 9.6875 1.625 C8.6975 3.11 8.6975 3.11 7.6875 4.625 C7.6875 3.965 7.6875 3.305 7.6875 2.625 C7.0275 2.625 6.3675 2.625 5.6875 2.625 C5.6875 3.615 5.6875 4.605 5.6875 5.625 C7.0075 5.955 8.3275 6.285 9.6875 6.625 C7.875 7.3125 7.875 7.3125 5.6875 7.625 C5.26621826 7.14248779 4.84493652 6.65997559 4.41088867 6.1628418 C1.94277727 3.96045708 0.18994416 4.28232319 -3.07421875 4.33203125 C-4.19248047 4.34169922 -5.31074219 4.35136719 -6.46289062 4.36132812 C-8.21375977 4.3990332 -8.21375977 4.3990332 -10 4.4375 C-11.17884766 4.45103516 -12.35769531 4.46457031 -13.57226562 4.47851562 C-16.48613411 4.51390674 -19.39908945 4.56328191 -22.3125 4.625 C-22.3125 4.295 -22.3125 3.965 -22.3125 3.625 C-18.8475 3.13 -18.8475 3.13 -15.3125 2.625 C-15.3125 2.295 -15.3125 1.965 -15.3125 1.625 C-14.37277344 1.53412109 -14.37277344 1.53412109 -13.4140625 1.44140625 C-12.59679687 1.35761719 -11.77953125 1.27382812 -10.9375 1.1875 C-10.12539062 1.10628906 -9.31328125 1.02507812 -8.4765625 0.94140625 C-1.10114459 -0.13694908 -1.10114459 -0.13694908 0 0 Z " fill="#1986C1" transform="translate(78.3125,79.375)"/>
<path d="M0 0 C7.26 0 14.52 0 22 0 C22 0.33 22 0.66 22 1 C21.43079834 1.11069824 20.86159668 1.22139648 20.27514648 1.33544922 C17.66197597 1.84550444 15.04974335 2.36021829 12.4375 2.875 C11.54224609 3.04902344 10.64699219 3.22304688 9.72460938 3.40234375 C4.73330458 4.38963481 -0.13216011 5.51761254 -5 7 C-5 6.34 -5 5.68 -5 5 C-5.66 5 -6.32 5 -7 5 C-6.67 3.68 -6.34 2.36 -6 1 C-3.36 1.33 -0.72 1.66 2 2 C1.34 1.34 0.68 0.68 0 0 Z " fill="#EEF6F8" transform="translate(79,0)"/>
<path d="M0 0 C1.5625 1.125 1.5625 1.125 3 3 C2.6875 6 2.6875 6 2 9 C2 9.99 2 10.98 2 12 C2 15 2 18 2 21 C1.01 21 0.02 21 -1 21 C-1 19.68 -1 18.36 -1 17 C-1.66 17 -2.32 17 -3 17 C-4.18609365 11.3067505 -3.66251802 7.57432514 -2 2 C-1.34 2 -0.68 2 0 2 C0 1.34 0 0.68 0 0 Z " fill="#2389BD" transform="translate(5,83)"/>
<path d="M0 0 C0.33 0 0.66 0 1 0 C1 7.92 1 15.84 1 24 C0.01 24.33 -0.98 24.66 -2 25 C-2 25.66 -2 26.32 -2 27 C-2.99 27.33 -3.98 27.66 -5 28 C-4.731875 26.72125 -4.46375 25.4425 -4.1875 24.125 C-2.5798661 16.12152761 -1.31623941 8.05538522 0 0 Z " fill="#EDF4F9" transform="translate(224,122)"/>
<path d="M0 0 C0 1.98 0 3.96 0 6 C-5.0247239 6.62529897 -9.92528427 7.13012092 -15 7 C-15 6.34 -15 5.68 -15 5 C-13.06891037 3.96709159 -11.129882 2.94901328 -9.1875 1.9375 C-8.10855469 1.36902344 -7.02960938 0.80054688 -5.91796875 0.21484375 C-3 -1 -3 -1 0 0 Z " fill="#288BBE" transform="translate(72,9)"/>
<path d="M0 0 C4.29 0 8.58 0 13 0 C13 0.99 13 1.98 13 3 C6.25 4 6.25 4 4 4 C4 4.99 4 5.98 4 7 C3.34 7 2.68 7 2 7 C2 7.66 2 8.32 2 9 C1.34 8.67 0.68 8.34 0 8 C0 5.36 0 2.72 0 0 Z " fill="#0676B3" transform="translate(152,208)"/>
<path d="M0 0 C5.94 0 11.88 0 18 0 C17.67 0.99 17.34 1.98 17 3 C8.585 3.495 8.585 3.495 0 4 C0 2.68 0 1.36 0 0 Z " fill="#FEFCFA" transform="translate(151,163)"/>
<path d="M0 0 C2.07196631 0.73178866 4.1108552 1.55899003 6.125 2.4375 C7.22070312 2.91058594 8.31640625 3.38367188 9.4453125 3.87109375 C10.28835937 4.24363281 11.13140625 4.61617187 12 5 C12 5.99 12 6.98 12 8 C6.34388537 8.56561146 2.77357872 6.71391278 -2 4 C-2 3.01 -2 2.02 -2 1 C-1.34 0.67 -0.68 0.34 0 0 Z " fill="#1E84BB" transform="translate(154,8)"/>
<path d="M0 0 C0.66 0 1.32 0 2 0 C2 0.66 2 1.32 2 2 C2.66 2 3.32 2 4 2 C3.79503906 2.845625 3.59007812 3.69125 3.37890625 4.5625 C1.91982438 10.70600261 0.61628354 16.71390787 0 23 C-0.33 23 -0.66 23 -1 23 C-1.02714434 20.2915983 -1.04690846 17.58347279 -1.0625 14.875 C-1.07087891 14.11445312 -1.07925781 13.35390625 -1.08789062 12.5703125 C-1.10646509 8.2610356 -0.86117265 4.24483526 0 0 Z " fill="#ECF3F8" transform="translate(1,78)"/>
<path d="M0 0 C0.33 0 0.66 0 1 0 C1 1.98 1 3.96 1 6 C3.97 6.495 3.97 6.495 7 7 C6.75 8.8125 6.75 8.8125 6 11 C5.34 11.474375 4.68 11.94875 4 12.4375 C1.74724544 13.87886306 1.74724544 13.87886306 1.25 16.6875 C1.1675 17.450625 1.085 18.21375 1 19 C0.67 19 0.34 19 0 19 C0 12.73 0 6.46 0 0 Z " fill="#318EC2" transform="translate(0,101)"/>
<path d="M0 0 C0.66 0 1.32 0 2 0 C0.72278474 4.99275057 -1.17330957 7.57611908 -5 11 C-5 10.34 -5 9.68 -5 9 C-5.66 9 -6.32 9 -7 9 C-7.625 6.6875 -7.625 6.6875 -8 4 C-7.34 3.01 -6.68 2.02 -6 1 C-5.01 1.33 -4.02 1.66 -3 2 C-3.33 3.32 -3.66 4.64 -4 6 C-3.34 6 -2.68 6 -2 6 C-1.34 4.02 -0.68 2.04 0 0 Z " fill="#0D74AC" transform="translate(208,167)"/>
<path d="M0 0 C3.96 1.32 7.92 2.64 12 4 C12 4.33 12 4.66 12 5 C9.03 5 6.06 5 3 5 C3 5.66 3 6.32 3 7 C1.35 6.67 -0.3 6.34 -2 6 C-2.33 4.35 -2.66 2.7 -3 1 C-2.01 1.33 -1.02 1.66 0 2 C0 1.34 0 0.68 0 0 Z " fill="#EFF7FA" transform="translate(69,216)"/>
<path d="M0 0 C0.33 1.32 0.66 2.64 1 4 C0.360625 4.433125 -0.27875 4.86625 -0.9375 5.3125 C-3.26746003 6.91239177 -3.26746003 6.91239177 -4 10 C-5.65 10.33 -7.3 10.66 -9 11 C-9 10.34 -9 9.68 -9 9 C-9.66 8.34 -10.32 7.68 -11 7 C-7.37 4.69 -3.74 2.38 0 0 Z " fill="#EEF4F7" transform="translate(177,204)"/>
<path d="M0 0 C4.29 0 8.58 0 13 0 C11.68 1.32 10.36 2.64 9 4 C9.66 4.66 10.32 5.32 11 6 C8.36 6 5.72 6 3 6 C3 4.68 3 3.36 3 2 C2.01 1.34 1.02 0.68 0 0 Z " fill="#308DC0" transform="translate(101,0)"/>
<path d="M0 0 C7.35251669 0.53410863 14.67902003 1.13140916 22 2 C22 2.33 22 2.66 22 3 C14.41 3 6.82 3 -1 3 C-0.67 2.01 -0.34 1.02 0 0 Z " fill="#F2F8FA" transform="translate(81,222)"/>
<path d="M0 0 C0.66 0 1.32 0 2 0 C2 0.66 2 1.32 2 2 C3.32 2.33 4.64 2.66 6 3 C6.33 2.01 6.66 1.02 7 0 C7.12375 1.2375 7.2475 2.475 7.375 3.75 C7.75746305 6.8762197 8.30549523 9.28879237 10 12 C9.01 12.33 8.02 12.66 7 13 C5.83072457 11.02237345 4.66464427 9.04285742 3.5 7.0625 C2.8503125 5.96035156 2.200625 4.85820313 1.53125 3.72265625 C0 1 0 1 0 0 Z " fill="#F0F6FA" transform="translate(205,48)"/>
<path d="M0 0 C0.33 0.66 0.66 1.32 1 2 C-2.76657447 3.40151608 -5.96543268 4.5452118 -10 4 C-11.8125 2.5 -11.8125 2.5 -13 1 C-8.26720327 -0.96237913 -4.99847118 -1.17611086 0 0 Z " fill="#0D76AE" transform="translate(141,219)"/>
<path d="M0 0 C2.56919192 2.25886817 3.68000131 4.20020805 4.75 7.4375 C5.01296875 8.19933594 5.2759375 8.96117188 5.546875 9.74609375 C6 12 6 12 5 16 C4.01 13.36 3.02 10.72 2 8 C1.01 8 0.02 8 -1 8 C-0.67 5.36 -0.34 2.72 0 0 Z " fill="#EEF1F5" transform="translate(169,96)"/>
<path d="M0 0 C0.99 0.33 1.98 0.66 3 1 C-1.14010271 5.54075781 -5.82390176 8.71842138 -11 12 C-11.33 11.01 -11.66 10.02 -12 9 C-10.3790787 7.82767315 -8.75313167 6.6622923 -7.125 5.5 C-5.76761719 4.52546875 -5.76761719 4.52546875 -4.3828125 3.53125 C-2 2 -2 2 0 2 C0 1.34 0 0.68 0 0 Z " fill="#E8F0F7" transform="translate(49,16)"/>
<path d="M0 0 C3.67033927 3.27708863 5.69281189 6.71522208 8 11 C4.31245243 10.50168276 2.39509338 9.89932357 0 7 C0.33 6.34 0.66 5.68 1 5 C0.34 4.67 -0.32 4.34 -1 4 C-0.67 2.68 -0.34 1.36 0 0 Z " fill="#E8F3F7" transform="translate(16,171)"/>
<path d="M0 0 C0.33 0 0.66 0 1 0 C1.1958009 1.91583647 1.38132214 3.83272539 1.5625 5.75 C1.66691406 6.81734375 1.77132812 7.8846875 1.87890625 8.984375 C1.98560074 11.64141204 1.81930395 13.49960572 1 16 C0.34 16 -0.32 16 -1 16 C-0.67 14.35 -0.34 12.7 0 11 C-0.66 11 -1.32 11 -2 11 C-2.33 12.65 -2.66 14.3 -3 16 C-3.33 16 -3.66 16 -4 16 C-3.67 13.36 -3.34 10.72 -3 8 C-2.01 8.33 -1.02 8.66 0 9 C0 6.03 0 3.06 0 0 Z " fill="#1076AA" transform="translate(220,128)"/>
<path d="M0 0 C0 0.66 0 1.32 0 2 C-4.50353262 3.75747614 -8.17639811 4.19294408 -13 4 C-13 3.34 -13 2.68 -13 2 C-11.5882217 1.46605821 -10.17029756 0.94834896 -8.75 0.4375 C-7.96109375 0.14746094 -7.1721875 -0.14257812 -6.359375 -0.44140625 C-3.80896548 -1.04522837 -2.44677771 -0.8473932 0 0 Z " fill="#308FBF" transform="translate(88,4)"/>
<path d="M0 0 C1.26934731 2.53869461 1.20149912 4.17901229 1 7 C0 9.3125 0 9.3125 -1 11 C-2.32 11 -3.64 11 -5 11 C-5.33 10.01 -5.66 9.02 -6 8 C-4.78515625 5.95703125 -4.78515625 5.95703125 -3.0625 3.8125 C-2.49660156 3.09707031 -1.93070313 2.38164062 -1.34765625 1.64453125 C-0.90292969 1.10183594 -0.45820313 0.55914062 0 0 Z " fill="#F0F6F6" transform="translate(207,173)"/>
<path d="M0 0 C0.66 0.33 1.32 0.66 2 1 C1.236875 1.7425 0.47375 2.485 -0.3125 3.25 C-2.94311011 5.82255772 -2.94311011 5.82255772 -4.6875 8.25 C-6 10 -6 10 -8 11 C-8 10.34 -8 9.68 -8 9 C-8.66 8.67 -9.32 8.34 -10 8 C-8.71064081 6.85157077 -7.41843421 5.70633773 -6.125 4.5625 C-5.04605469 3.60537109 -5.04605469 3.60537109 -3.9453125 2.62890625 C-2 1 -2 1 0 0 Z " fill="#E4F1F9" transform="translate(133,87)"/>
<path d="M0 0 C0.33 0.99 0.66 1.98 1 3 C1.66 3 2.32 3 3 3 C3 5.64 3 8.28 3 11 C2.34 11 1.68 11 1 11 C1 10.34 1 9.68 1 9 C-0.32 8.34 -1.64 7.68 -3 7 C-2.01 4.69 -1.02 2.38 0 0 Z " fill="#278ABE" transform="translate(13,59)"/>
<path d="M0 0 C3.96 0 7.92 0 12 0 C12 1.98 12 3.96 12 6 C7.96479403 4.41037341 3.98188718 2.71767682 0 1 C0 0.67 0 0.34 0 0 Z " fill="#ECF1F6" transform="translate(157,9)"/>
<path d="M0 0 C1.98 0 3.96 0 6 0 C5.02149805 1.02104551 4.02019573 2.0206121 3 3 C2.67 3 2.34 3 2 3 C1.731875 3.928125 1.46375 4.85625 1.1875 5.8125 C0 9 0 9 -3 12 C-3 9.03 -3 6.06 -3 3 C-2.67 3.99 -2.34 4.98 -2 6 C-1.34 6 -0.68 6 0 6 C-0.185625 5.38125 -0.37125 4.7625 -0.5625 4.125 C-1 2 -1 2 0 0 Z " fill="#1077AF" transform="translate(125,85)"/>
<path d="M0 0 C0.66 0 1.32 0 2 0 C3.80230168 3.82989106 4.19622241 6.78121808 4 11 C2.125 10.375 2.125 10.375 0 9 C-1.375 6.0625 -1.375 6.0625 -2 3 C-1.34 2.01 -0.68 1.02 0 0 Z " fill="#2484BC" transform="translate(84,50)"/>
<path d="M0 0 C2.31 0.66 4.62 1.32 7 2 C7 3.65 7 5.3 7 7 C4 7 4 7 1.8125 5.1875 C0 3 0 3 0 0 Z " fill="#EAF3F7" transform="translate(193,32)"/>
<path d="M0 0 C0.99 0.33 1.98 0.66 3 1 C3 1.66 3 2.32 3 3 C3.66 3 4.32 3 5 3 C4.67 5.31 4.34 7.62 4 10 C3.34 10 2.68 10 2 10 C1.46987262 8.71211992 0.9511671 7.41953322 0.4375 6.125 C0.14746094 5.40570313 -0.14257812 4.68640625 -0.44140625 3.9453125 C-1 2 -1 2 0 0 Z " fill="#1D85BA" transform="translate(9,152)"/>
<path d="M0 0 C2.475 0.99 2.475 0.99 5 2 C4.34 3.32 3.68 4.64 3 6 C2.34 6 1.68 6 1 6 C0.67 6.66 0.34 7.32 0 8 C-1.32 6.68 -2.64 5.36 -4 4 C-2.66666667 2.66666667 -1.33333333 1.33333333 0 0 Z " fill="#F0F6F8" transform="translate(147,104)"/>
<path d="M0 0 C5.75 3.625 5.75 3.625 8 7 C6.88625 6.814375 5.7725 6.62875 4.625 6.4375 C1.17431139 5.68319343 1.17431139 5.68319343 -1 7 C-1.04254356 5.00045254 -1.04080783 2.99958364 -1 1 C-0.67 0.67 -0.34 0.34 0 0 Z " fill="#EBF3F5" transform="translate(161,88)"/>
<path d="M0 0 C1.9375 0.75 1.9375 0.75 4 2 C4.75 4.125 4.75 4.125 5 6 C3.35 6 1.7 6 0 6 C-0.66 4.68 -1.32 3.36 -2 2 C-1.34 1.34 -0.68 0.68 0 0 Z " fill="#F1F5F8" transform="translate(26,186)"/>
<path d="M0 0 C2 2 2 2 2.125 4.625 C2.08375 5.40875 2.0425 6.1925 2 7 C0.35 7.33 -1.3 7.66 -3 8 C-3 5.69 -3 3.38 -3 1 C-2.01 0.67 -1.02 0.34 0 0 Z " fill="#0574AF" transform="translate(212,154)"/>
<path d="M0 0 C1.32 0.33 2.64 0.66 4 1 C1.669626 3.330374 0.81289219 3.38990587 -2.375 3.75 C-3.53128906 3.89695312 -3.53128906 3.89695312 -4.7109375 4.046875 C-7.31614668 3.99352601 -8.78053857 3.31748852 -11 2 C-7.18243176 0.62567543 -3.92744671 1.32024961 0 2 C0 1.34 0 0.68 0 0 Z " fill="#DCEBF5" transform="translate(74,73)"/>
<path d="M0 0 C0 3.19610552 -0.54671542 4.41717626 -2 7.1875 C-2.37125 7.90292969 -2.7425 8.61835937 -3.125 9.35546875 C-3.558125 10.16951172 -3.558125 10.16951172 -4 11 C-4.66 11 -5.32 11 -6 11 C-5.63076923 4.6 -5.63076923 4.6 -2.4375 1.5625 C-1.633125 1.046875 -0.82875 0.53125 0 0 Z " fill="#ECF4F5" transform="translate(15,54)"/>
<path d="M0 0 C-1.98 2.31 -3.96 4.62 -6 7 C-7.03348696 3.89953913 -7.17755913 2.94389782 -6 0 C-3 -1 -3 -1 0 0 Z " fill="#0870AD" transform="translate(199,184)"/>
<path d="M0 0 C0.66 0 1.32 0 2 0 C2 0.66 2 1.32 2 2 C3.32 2 4.64 2 6 2 C6.66 3.32 7.32 4.64 8 6 C7.34 6 6.68 6 6 6 C5.67 6.66 5.34 7.32 5 8 C0 2.25 0 2.25 0 0 Z " fill="#E8F5F8" transform="translate(56,66)"/>
<path d="M0 0 C0.66 0.66 1.32 1.32 2 2 C-0.76452033 3.38226016 -3.0461363 3.09525387 -6.125 3.0625 C-7.22070312 3.05347656 -8.31640625 3.04445313 -9.4453125 3.03515625 C-10.70988281 3.01775391 -10.70988281 3.01775391 -12 3 C-12 2.67 -12 2.34 -12 2 C-7.84782943 0.41822074 -4.45263035 -0.40478458 0 0 Z " fill="#1883B0" transform="translate(140,3)"/>
<path d="M0 0 C1.32 0 2.64 0 4 0 C4 2.97 4 5.94 4 9 C3.34 9 2.68 9 2 9 C2 7.35 2 5.7 2 4 C1.34 4 0.68 4 0 4 C0 2.68 0 1.36 0 0 Z " fill="#0676B7" transform="translate(216,128)"/>
<path d="M0 0 C0.66 0.33 1.32 0.66 2 1 C2 2.32 2 3.64 2 5 C-1.3 4.67 -4.6 4.34 -8 4 C-5.31143836 2.20762558 -3.0466145 1.01553817 0 0 Z " fill="#E3F1F5" transform="translate(155,216)"/>
<path d="M0 0 C1.32 0.66 2.64 1.32 4 2 C3.67 2.99 3.34 3.98 3 5 C1.66923011 5.34342449 0.33568021 5.67619874 -1 6 C-1.66 6.99 -2.32 7.98 -3 9 C-3.33 8.01 -3.66 7.02 -4 6 C-2.0625 2.8125 -2.0625 2.8125 0 0 Z " fill="#298DC2" transform="translate(18,51)"/>
<path d="M0 0 C0.99 0.33 1.98 0.66 3 1 C3 1.66 3 2.32 3 3 C3.66 3 4.32 3 5 3 C4.34 4.32 3.68 5.64 3 7 C2.01 7 1.02 7 0 7 C-0.93423645 3.98968256 -1.04449911 3.13349732 0 0 Z " fill="#EBF5F7" transform="translate(25,32)"/>
<path d="M0 0 C1.98 0.495 1.98 0.495 4 1 C3.67 3.31 3.34 5.62 3 8 C1.68 7.34 0.36 6.68 -1 6 C-1 5.34 -1 4.68 -1 4 C-0.34 4 0.32 4 1 4 C0.67 2.68 0.34 1.36 0 0 Z " fill="#F2F7F7" transform="translate(180,16)"/>
<path d="M0 0 C3.125 0.375 3.125 0.375 6 1 C6 1.66 6 2.32 6 3 C4.39773045 3.22245393 2.79303233 3.42746669 1.1875 3.625 C0.29417969 3.74101562 -0.59914063 3.85703125 -1.51953125 3.9765625 C-4 4 -4 4 -7 2 C-6.21625 2.04125 -5.4325 2.0825 -4.625 2.125 C-1.83883881 2.28728734 -1.83883881 2.28728734 0 0 Z " fill="#1274AA" transform="translate(82,216)"/>
<path d="M0 0 C1.65 0.33 3.3 0.66 5 1 C5 1.99 5 2.98 5 4 C-1.28571429 6.42857143 -1.28571429 6.42857143 -5 5 C-3.02 4.67 -1.04 4.34 1 4 C0.67 2.68 0.34 1.36 0 0 Z " fill="#0974AC" transform="translate(91,216)"/>
<path d="M0 0 C3.7910119 1.44950455 7.3874638 3.15172566 11 5 C6.74938644 6.41687119 4.28148375 5.19320039 0 4 C0 2.68 0 1.36 0 0 Z " fill="#EAF1FC" transform="translate(54,209)"/>
<path d="M0 0 C2.475 0.99 2.475 0.99 5 2 C5 3.32 5 4.64 5 6 C4.38125 5.649375 3.7625 5.29875 3.125 4.9375 C2.073125 4.4734375 2.073125 4.4734375 1 4 C0.01 4.495 0.01 4.495 -1 5 C-0.67 3.35 -0.34 1.7 0 0 Z " fill="#1D83BB" transform="translate(195,39)"/>
<path d="M0 0 C0.66 0.99 1.32 1.98 2 3 C1.67 3.99 1.34 4.98 1 6 C-1.0625 6.6875 -1.0625 6.6875 -3 7 C-3.33 6.01 -3.66 5.02 -4 4 C-2.68 2.68 -1.36 1.36 0 0 Z " fill="#E6F2F5" transform="translate(190,193)"/>
<path d="M0 0 C-0.66 0.66 -1.32 1.32 -2 2 C-4.59269983 1.98252112 -7.0525154 1.86231408 -9.625 1.625 C-10.33140625 1.56828125 -11.0378125 1.5115625 -11.765625 1.453125 C-13.51121361 1.31159079 -15.25573673 1.15702613 -17 1 C-17 0.67 -17 0.34 -17 0 C-14.72979256 -0.19493195 -12.45879711 -0.38070418 -10.1875 -0.5625 C-8.92292969 -0.66691406 -7.65835938 -0.77132812 -6.35546875 -0.87890625 C-3 -1 -3 -1 0 0 Z " fill="#3A8DBB" transform="translate(159,84)"/>
<path d="M0 0 C2.64465038 3.1254959 3.84414715 6.08788267 5 10 C3 10 3 10 1.4375 8.875 C-0.50906107 6.3360073 -0.72631346 4.14739518 -1 1 C-0.67 0.67 -0.34 0.34 0 0 Z " fill="#2082B6" transform="translate(211,59)"/>
<path d="M0 0 C2 2 2 2 2.125 4.625 C2.08375 5.40875 2.0425 6.1925 2 7 C1.01 7 0.02 7 -1 7 C-1.66 5.35 -2.32 3.7 -3 2 C-2.01 1.34 -1.02 0.68 0 0 Z " fill="#288CC3" transform="translate(54,16)"/>
<path d="M0 0 C1.65 0.33 3.3 0.66 5 1 C3.35 2.65 1.7 4.3 0 6 C-1 3 -1 3 0 0 Z " fill="#086FAE" transform="translate(184,193)"/>
<path d="M0 0 C6.0546875 -0.1953125 6.0546875 -0.1953125 8 0 C8.66 0.66 9.32 1.32 10 2 C6.37 2.33 2.74 2.66 -1 3 C-0.67 2.01 -0.34 1.02 0 0 Z " fill="#2C86B5" transform="translate(132,107)"/>
<path d="M0 0 C2.475 0.495 2.475 0.495 5 1 C5 3.64 5 6.28 5 9 C4.34 9 3.68 9 3 9 C2.8046875 6.94921875 2.609375 4.8984375 2.4140625 2.84765625 C2.27742188 2.23792969 2.14078125 1.62820312 2 1 C1.34 0.67 0.68 0.34 0 0 Z " fill="#1B82C2" transform="translate(120,82)"/>
<path d="M0 0 C1.98 0.495 1.98 0.495 4 1 C3.01 2.98 2.02 4.96 1 7 C0.34 6.34 -0.32 5.68 -1 5 C-0.625 2.375 -0.625 2.375 0 0 Z " fill="#1A79B2" transform="translate(210,161)"/>
<path d="M0 0 C4.75 0.75 4.75 0.75 7 3 C7 3.99 7 4.98 7 6 C3.63279613 4.60667426 2.0140476 3.0210714 0 0 Z " fill="#E5F1F7" transform="translate(184,25)"/>
<path d="M0 0 C-2.38573379 1.89213369 -4.07175348 3.02391783 -7 4 C-7.66 3.34 -8.32 2.68 -9 2 C-8.34 2 -7.68 2 -7 2 C-7 1.34 -7 0.68 -7 0 C-3.86650268 -1.04449911 -3.01031744 -0.93423645 0 0 Z " fill="#ECF7F7" transform="translate(67,9)"/>
<path d="M0 0 C0.33 0.66 0.66 1.32 1 2 C0.00664799 3.67063747 -0.99431758 5.33675599 -2 7 C-2.70670728 9.69254991 -2.70670728 9.69254991 -3 12 C-3.33 12 -3.66 12 -4 12 C-4.50423019 6.70558305 -3.18923033 4.18586481 0 0 Z " fill="#D0E5F5" transform="translate(59,52)"/>
<path d="M0 0 C1.2065625 0.0309375 1.2065625 0.0309375 2.4375 0.0625 C2.4375 0.7225 2.4375 1.3825 2.4375 2.0625 C1.4475 2.0625 0.4575 2.0625 -0.5625 2.0625 C-0.8925 2.7225 -1.2225 3.3825 -1.5625 4.0625 C-3.625 4.6875 -3.625 4.6875 -5.5625 5.0625 C-3.15007962 0.07683121 -3.15007962 0.07683121 0 0 Z " fill="#1E86B9" transform="translate(32.5625,35.9375)"/>
<path d="M0 0 C2.64 0 5.28 0 8 0 C7.01 0.33 6.02 0.66 5 1 C5 1.99 5 2.98 5 4 C3.0625 3.6875 3.0625 3.6875 1 3 C0.67 2.01 0.34 1.02 0 0 Z " fill="#3D93C2" transform="translate(115,0)"/>
<path d="M0 0 C0.99 0.33 1.98 0.66 3 1 C3 1.99 3 2.98 3 4 C3.66 4.33 4.32 4.66 5 5 C3.02 5.33 1.04 5.66 -1 6 C-1 3 -1 3 0 0 Z " fill="#0B76B1" transform="translate(67,209)"/>
<path d="M0 0 C0.66 0.33 1.32 0.66 2 1 C2 2.98 2 4.96 2 7 C0.68 7 -0.64 7 -2 7 C-1.34 4.69 -0.68 2.38 0 0 Z " fill="#E2F0F3" transform="translate(218,150)"/>
<path d="M0 0 C-1.29299694 2.88437779 -2.65941363 4.87219421 -5 7 C-5.1875 4.625 -5.1875 4.625 -5 2 C-2 0 -2 0 0 0 Z " fill="#DFF1F7" transform="translate(25,41)"/>
<path d="M0 0 C0.99 0.99 1.98 1.98 3 3 C1.6875 4.5 1.6875 4.5 0 6 C-0.99 6 -1.98 6 -3 6 C-1.125 1.125 -1.125 1.125 0 0 Z " fill="#E5EDF4" transform="translate(35,26)"/>
<path d="M0 0 C0 0.99 0 1.98 0 3 C-2.31 3 -4.62 3 -7 3 C-7 2.34 -7 1.68 -7 1 C-4 0 -4 0 0 0 Z " fill="#2089BB" transform="translate(82,5)"/>
<path d="M0 0 C0.598125 0.20625 1.19625 0.4125 1.8125 0.625 C1.8125 1.285 1.8125 1.945 1.8125 2.625 C0 3.25 0 3.25 -2.1875 3.625 C-3.1775 2.965 -4.1675 2.305 -5.1875 1.625 C-2.1875 -0.375 -2.1875 -0.375 0 0 Z " fill="#1E82BE" transform="translate(86.1875,218.375)"/>
<path d="M0 0 C0.99 0 1.98 0 3 0 C3 0.66 3 1.32 3 2 C-2.75 5 -2.75 5 -5 5 C-4.67 4.01 -4.34 3.02 -4 2 C-2.68 2 -1.36 2 0 2 C0 1.34 0 0.68 0 0 Z " fill="#1E72AB" transform="translate(165,209)"/>
<path d="M0 0 C0.33 1.32 0.66 2.64 1 4 C0.01 4.66 -0.98 5.32 -2 6 C-2.99 5.67 -3.98 5.34 -5 5 C-3.35 3.35 -1.7 1.7 0 0 Z " fill="#DDEAF1" transform="translate(197,186)"/>
<path d="M0 0 C1.89213369 2.38573379 3.02391783 4.07175348 4 7 C2.35 6.67 0.7 6.34 -1 6 C-0.67 4.02 -0.34 2.04 0 0 Z " fill="#EFF3F8" transform="translate(10,160)"/>
<path d="M0 0 C0.66 0.66 1.32 1.32 2 2 C1.75 4.5625 1.75 4.5625 1 7 C0.01 7.495 0.01 7.495 -1 8 C-1.93065133 5.39417629 -2.14917407 4.35801776 -1.0625 1.75 C-0.711875 1.1725 -0.36125 0.595 0 0 Z " fill="#F0F7F8" transform="translate(214,160)"/>
<path d="M0 0 C1.875 0.3125 1.875 0.3125 4 1 C4.66 1.99 5.32 2.98 6 4 C3.37886292 4 1.49064888 3.68707555 -1 3 C-0.67 2.01 -0.34 1.02 0 0 Z " fill="#0D7CB2" transform="translate(183,27)"/>
</svg>
